<?xml version="1.0" encoding="UTF-8"?>
<svg id="Calque_1" data-name="Calque 1" xmlns="http://www.w3.org/2000/svg" viewBox="0 0 600 168">
  <defs>
    <style>
      .cls-1 {
        fill: #264668;
      }
    </style>
  </defs>
  <g>
    <path class="cls-1" d="M182.69,41.51c-.15-2.88-.34-6.35-.31-8.92h-.09c-.71,2.42-1.56,5-2.61,7.85l-3.65,10.03h-2.02l-3.34-9.84c-.98-2.91-1.81-5.58-2.39-8.03h-.06c-.06,2.58-.21,6.04-.4,9.14l-.55,8.86h-2.55l1.44-20.67h3.4l3.53,10c.86,2.54,1.56,4.81,2.08,6.96h.09c.52-2.09,1.26-4.35,2.18-6.96l3.68-10h3.4l1.29,20.67h-2.61l-.52-9.08Z"/>
    <path class="cls-1" d="M237.6,44.09l-2.15,6.5h-2.76l7.02-20.67h3.22l7.05,20.67h-2.85l-2.21-6.5h-7.33Zm6.78-2.09l-2.02-5.95c-.46-1.35-.77-2.58-1.07-3.77h-.06c-.31,1.23-.64,2.48-1.04,3.74l-2.02,5.98h6.22Z"/>
    <path class="cls-1" d="M308.56,50.59l-2.64-4.57c-1.07-1.75-1.75-2.88-2.39-4.08h-.06c-.58,1.2-1.16,2.3-2.24,4.11l-2.48,4.54h-3.07l6.32-10.46-6.07-10.21h3.1l2.73,4.84c.77,1.35,1.35,2.39,1.9,3.5h.09c.58-1.23,1.1-2.18,1.87-3.5l2.82-4.84h3.07l-6.29,10.06,6.44,10.61h-3.1Z"/>
    <path class="cls-1" d="M362.06,29.92v20.67h-2.67V29.92h2.67Z"/>
    <path class="cls-1" d="M428.78,41.51c-.15-2.88-.34-6.35-.31-8.92h-.09c-.71,2.42-1.56,5-2.61,7.85l-3.65,10.03h-2.02l-3.34-9.84c-.98-2.91-1.81-5.58-2.39-8.03h-.06c-.06,2.58-.21,6.04-.4,9.14l-.55,8.86h-2.55l1.44-20.67h3.4l3.53,10c.86,2.54,1.56,4.81,2.08,6.96h.09c.52-2.09,1.26-4.35,2.18-6.96l3.68-10h3.4l1.29,20.67h-2.61l-.52-9.08Z"/>
    <path class="cls-1" d="M483.33,29.92v12.23c0,4.63,2.05,6.59,4.81,6.59,3.07,0,5.03-2.02,5.03-6.59v-12.23h2.7v12.05c0,6.35-3.34,8.95-7.82,8.95-4.23,0-7.42-2.42-7.42-8.83v-12.17h2.7Z"/>
    <path class="cls-1" d="M562.56,41.51c-.15-2.88-.34-6.35-.31-8.92h-.09c-.71,2.42-1.56,5-2.61,7.85l-3.65,10.03h-2.02l-3.34-9.84c-.98-2.91-1.81-5.58-2.39-8.03h-.06c-.06,2.58-.21,6.04-.4,9.14l-.55,8.86h-2.55l1.44-20.67h3.4l3.53,10c.86,2.54,1.56,4.81,2.08,6.96h.09c.52-2.09,1.26-4.35,2.18-6.96l3.68-10h3.4l1.29,20.67h-2.61l-.52-9.08Z"/>
    <path class="cls-1" d="M239.62,125.23c.38,3.39,1.04,8.66,5.09,9.98,2.73,.85,4.9,.85,5.84,.85,.47,0,1.04,.09,1.04,.56,0,.57-.28,.75-1.41,.75-2.07,0-12.81-.28-16.29-.56-2.17-.19-2.64-.47-2.64-.94,0-.38,.19-.47,.66-.66,.66-.28,.57-1.7,.38-3.39l-4.52-49.16-23.35,49.53c-1.98,4.14-2.26,4.99-3.11,4.99-.66,0-1.13-.94-2.92-4.33-2.45-4.61-10.55-20.91-11.02-21.85-.85-1.69-11.68-24.96-12.71-27.5l-3.86,44.35c-.09,1.51-.19,2.83-.19,4.43,0,2.35,1.13,3.11,2.54,3.39,1.6,.38,2.83,.38,3.39,.38s.94,.19,.94,.47c0,.66-.47,.85-1.41,.85-3.48,0-8.29-.28-9.04-.28-.85,0-5.37,.28-7.91,.28-.94,0-1.6-.09-1.6-.75,0-.38,.47-.56,.94-.56,.75,0,1.41,0,2.82-.28,3.11-.57,3.3-3.96,3.77-7.82l6.78-61.21c.09-1.04,.47-1.88,1.04-1.88s.94,.38,1.41,1.41l28.82,59.23,27.69-59.14c.38-.85,.75-1.51,1.41-1.51s.94,.75,1.13,2.54l6.31,57.82Z"/>
    <path class="cls-1" d="M273.71,109.6c-.47,0-.75,.28-.94,.75l-5.65,16.67c-.85,2.35-1.32,4.61-1.32,6.31,0,1.88,1.79,2.73,3.39,2.73h.85c.94,0,1.22,.19,1.22,.56,0,.57-.85,.75-1.69,.75-2.26,0-6.03-.28-7.06-.28s-6.22,.28-10.64,.28c-1.22,0-1.79-.19-1.79-.75,0-.38,.47-.56,1.32-.56,.66,0,1.51-.09,2.26-.19,4.33-.56,6.22-4.14,7.91-8.85l21.38-58.48c1.13-3.11,1.51-3.67,2.07-3.67s.94,.47,2.07,3.39c1.41,3.58,16.2,42.47,21.94,56.78,3.39,8.38,6.12,9.89,8.1,10.45,1.41,.47,2.92,.57,3.67,.57,.57,0,1.04,.09,1.04,.56,0,.57-.85,.75-1.88,.75-1.41,0-8.29,0-14.79-.19-1.79-.09-2.82-.09-2.82-.66,0-.38,.28-.57,.66-.66,.57-.19,1.13-1.04,.57-2.54l-8.76-23.17c-.19-.38-.38-.57-.85-.57h-20.25Zm19.02-3.39c.47,0,.47-.28,.38-.66l-8.95-25.43c-.47-1.41-.94-1.41-1.41,0l-8.29,25.43c-.19,.47,0,.66,.28,.66h17.99Z"/>
    <path class="cls-1" d="M335.3,93.49c0-14.69,0-17.33-.19-20.34-.19-3.2-.94-4.71-4.05-5.37-.75-.19-2.35-.28-3.2-.28-.38,0-.75-.19-.75-.57,0-.56,.47-.75,1.51-.75,4.24,0,10.17,.28,10.64,.28,1.04,0,8.19-.28,11.11-.28,5.93,0,12.24,.57,17.23,4.14,2.35,1.7,6.5,6.31,6.5,12.81,0,6.97-2.92,13.94-11.39,21.75,7.72,9.89,14.13,18.27,19.59,24.11,5.08,5.37,9.13,6.4,11.49,6.78,1.79,.28,3.11,.28,3.67,.28,.47,0,.85,.28,.85,.56,0,.57-.56,.75-2.26,.75h-6.69c-5.27,0-7.63-.47-10.08-1.79-4.05-2.17-7.35-6.78-12.71-13.84-3.95-5.18-8.38-11.49-10.26-13.94-.38-.38-.66-.57-1.22-.57l-11.58-.19c-.47,0-.66,.28-.66,.75v2.26c0,9.04,0,16.48,.47,20.43,.28,2.73,.85,4.8,3.67,5.18,1.32,.19,3.39,.38,4.24,.38,.57,0,.75,.28,.75,.56,0,.47-.47,.75-1.51,.75-5.18,0-11.11-.28-11.58-.28-.09,0-6.03,.28-8.85,.28-1.04,0-1.51-.19-1.51-.75,0-.28,.19-.56,.75-.56,.85,0,1.98-.19,2.82-.38,1.88-.38,2.35-2.45,2.73-5.18,.47-3.96,.47-11.39,.47-20.43v-16.57Zm7.53,8.19c0,.47,.19,.85,.66,1.13,1.41,.85,5.74,1.51,9.89,1.51,2.26,0,4.9-.28,7.06-1.79,3.3-2.26,5.74-7.35,5.74-14.5,0-11.77-6.22-18.83-16.29-18.83-2.83,0-5.37,.28-6.31,.57-.47,.19-.75,.56-.75,1.13v30.79Z"/>
    <path class="cls-1" d="M406.31,93.49c0-14.69,0-17.33-.19-20.34-.19-3.2-1.13-4.8-3.2-5.27-1.04-.28-2.26-.38-2.92-.38-.38,0-.75-.19-.75-.57,0-.56,.47-.75,1.51-.75,3.11,0,9.04,.28,9.51,.28s6.4-.28,9.23-.28c1.04,0,1.51,.19,1.51,.75,0,.38-.38,.57-.75,.57-.66,0-1.22,.09-2.35,.28-2.54,.47-3.3,2.07-3.48,5.37-.19,3.01-.19,5.65-.19,20.34v16.57c0,9.04,0,16.48,.47,20.43,.28,2.73,.85,4.8,3.67,5.18,1.32,.19,3.3,.38,3.86,.38,.85,0,1.13,.28,1.13,.56,0,.47-.38,.75-1.41,.75-5.18,0-11.21-.28-11.68-.28s-6.4,.28-9.23,.28c-1.04,0-1.51-.19-1.51-.75,0-.28,.19-.56,1.04-.56,.56,0,1.6-.09,2.45-.28,1.88-.38,2.45-2.54,2.83-5.27,.47-3.96,.47-11.39,.47-20.43v-16.57Z"/>
    <path class="cls-1" d="M444.64,109.6c0-34,.19-21.75,.09-40.02,0-3.67,.28-4.71,1.04-4.71s2.35,2.07,3.3,3.01c1.41,1.6,15.44,16.76,29.95,32.3,9.32,9.98,19.59,21.47,22.6,24.58l-1.04-47.84c-.09-6.12-.75-8.19-3.67-8.95-1.69-.38-3.2-.47-4.05-.47-1.04,0-1.32-.28-1.32-.66,0-.57,.75-.66,1.88-.66,4.24,0,8.76,.28,9.79,.28s4.14-.28,8-.28c1.04,0,1.69,.09,1.69,.66,0,.38-.38,.57-1.04,.66-.75,.09-1.32,.19-2.45,.38-2.64,.56-3.3,1.98-3.3,8.47l-.19,55c0,6.22-.19,6.69-.85,6.69-.75,0-1.88-1.04-6.87-6.03-1.04-.94-14.6-14.78-24.58-25.52-10.92-11.77-21.57-23.64-24.58-27.03l1.22,45.11c.19,7.72,1.13,10.17,3.67,10.92,1.79,.47,3.86,.57,4.71,.57,.47,0,.75,.19,.75,.56,0,.57-.56,.75-1.69,.75-5.37,0-9.13-.28-9.98-.28s-4.8,.28-9.04,.28c-.94,0-1.51-.09-1.51-.75,0-.38,.28-.56,.75-.56,.75,0,2.45-.09,3.86-.57,2.35-.66,2.83-3.39,2.83-11.96v-13.94Z"/>
    <path class="cls-1" d="M536.93,93.49c0-14.69,0-17.33-.19-20.34-.19-3.2-.94-4.71-4.05-5.37-.66-.19-1.88-.19-2.73-.28-.66-.09-1.22-.19-1.22-.57,0-.56,.47-.75,1.51-.75,2.17,0,4.71,0,10.64,.28,.66,0,19.4,0,21.57-.09,2.07-.09,3.77-.28,4.33-.57,.57-.28,.75-.38,1.04-.38s.38,.38,.38,.85c0,.66-.57,1.79-.75,4.43-.09,1.41-.19,3.2-.38,5.65-.09,.94-.38,1.6-.75,1.6-.56,0-.75-.47-.75-1.22,0-1.22-.19-2.35-.47-3.11-.66-2.17-2.64-3.11-6.78-3.48-1.6-.19-11.87-.28-12.9-.28-.38,0-.56,.28-.56,.94v25.99c0,.66,.09,.94,.56,.94,1.22,0,12.81,0,14.97-.19,2.54-.19,3.77-.47,4.71-1.6,.47-.56,.75-.94,1.13-.94,.28,0,.47,.19,.47,.75s-.47,2.17-.75,5.27c-.28,2.92-.28,5.08-.38,6.4-.09,.94-.28,1.41-.66,1.41-.56,0-.66-.75-.66-1.51,0-.85-.09-1.79-.38-2.64-.38-1.41-1.51-2.73-4.9-3.11-2.54-.28-11.87-.47-13.47-.47-.47,0-.66,.28-.66,.66v8.29c0,3.2-.09,14.13,0,16.1,.19,3.86,.75,5.93,3.11,6.87,1.6,.66,4.14,.85,7.82,.85,2.82,0,5.93-.09,8.47-.85,3.01-.94,4.05-2.92,4.8-6.97,.19-1.04,.38-1.41,.85-1.41,.57,0,.57,.75,.57,1.41,0,.75-.75,7.16-1.22,9.13-.66,2.45-1.41,2.45-5.09,2.45-6.97,0-10.08-.19-13.75-.28-3.77-.09-8.1-.28-11.77-.28-2.26,0-4.52,.38-6.97,.28-1.04,0-1.51-.19-1.51-.75,0-.28,.47-.47,1.04-.56,.94-.09,1.51-.09,2.17-.28,1.98-.47,3.2-1.79,3.39-8.85,.09-3.67,.19-8.48,.19-16.86v-16.57Z"/>
  </g>
  <path class="cls-1" d="M140.08,81.17c.47-1.05,.79-1.76,1.12-2.51-2.29-.75-3.02,1.62-4.89,2.07-.04-.65,0-1.21-.13-1.71-.14-.5-.35-1.22-.73-1.39-1.64-.72-2.06-1.86-1.47-3.45,.24-.66,.58-1.28,.88-1.92,.56,.27,1.15,.49,1.69,.81,1.08,.64,2.07,.65,2.97-.28,.88-.9,.63-1.79-.1-2.62-.4-.46-.89-.84-1.36-1.27,2.24-1.79,2.86-2.86,2.18-3.61-1.54-1.69-3.92-1.94-5.21-.74-.81-.36-1.74-1.13-2.18-.91-.68,.34-1.04,1.34-1.48,2.1-.27,.47-.42,1-.64,1.57-1.58-.74-3.43-.56-4.22-2.4,3.48-.3,3.53-.49,.91-5.33,1.47,.39,2.58,.65,3.67,.99,1.15,.35,1.99,.17,2.6-.99,.58-1.11,.09-1.73-.76-2.31-.31-.21-.59-.47-.9-.71,1.98-1.76,1.94-1.78,1.05-4.17-.29-.79-.22-1.72-.33-2.68-2.89-.7-1.84,2.55-3.15,3.47-1.98-1-3.91-1.77-5.63,.35-1.1-1.84-.66-2.83,1.26-3,1.29-.12,2.53-.27,3-1.94-2.22-.54-2.39-2.14-2.14-3.95,.05-.4,.08-.81,.03-1.21-.22-1.65-1.09-2.08-2.42-1.11-1.07,.79-1.77,.6-2.35-.51-.18-.35-.36-.69-.56-1.06-1.39,.17-2.09,.8-1.9,2.19,.1,.74,.28,1.47,.39,2.21,.2,1.38,.14,2.65-1.71,3.38-.18-1.75-.35-3.38-.53-5.15-1.04,.2-2.06,.21-2.92,.6-1.01,.45-1.6,1.13-1.22,2.6,.32,1.28-.2,2.78-.35,4.18-.2,.03-.41,.06-.61,.1-.41-.46-.82-.92-1.23-1.37l.5-.08c0-1.22,.16-2.47-.03-3.66-.38-2.31-.3-2.54,1.91-3.2,.34-.1,.88-.42,.87-.62,0-.38-.27-.85-.57-1.11-.38-.33-.92-.47-1.37-.72-.82-.46-.89-1.04-.17-1.63,.49-.4,1.24-.59,1.53-1.08,.29-.51,.15-1.26,.2-1.9-.6-.03-1.2-.06-1.8-.08-.65-.02-1.31-.04-1.96-.05,.11-.66,.06-1.4,.35-1.96,.63-1.19,1.43-2.29,2.17-3.43-.06-.14-.11-.29-.17-.43-.95,.19-2.16,.08-2.79,.63-1.16,1-2.23,.99-3.51,.57-.98-.32-2-.85-2.98-.8-.9,.05-1.76,.75-2.63,1.17,.5,.76,.86,1.73,1.55,2.21,.87,.6,2.02,.8,3.04,1.18,1.01,.38,2,.81,1.65,2.21-.34,1.31-1.38,1.37-2.47,1.35-.94-.02-1.88,0-3.37,0,1.01,1.38,1.58,2.4,2.37,3.17,.78,.76,1.38,1.46,.8,2.53-.25,.46-.96,1.18-1.09,1.11-.82-.46-1.79-.96-2.22-1.72-.68-1.18-1-2.57-1.42-3.88-.51-1.63-1.73-1.92-3.68-1.95,2.53,3.82,1.9,6.97-1.39,9.82-.57-.63-1.09-1.2-1.6-1.76,.94-1.03,1.78-1.96,2.76-3.04-2.17-1.42-2.91-3.23-1.95-5.56,.06-.15,.06-.37,0-.51-.17-.32-.35-.8-.61-.87-.32-.08-.88,.11-1.05,.37-.3,.46-.41,1.06-.57,1.6-.25,.85-.48,1.71-.73,2.58-1.04-.42-1.82-.74-2.6-1.06-.17,.09-.34,.19-.51,.28,1.13,1.98,2.54,3.97,.53,5.88-.65-.57-1.14-1.31-1.78-1.48-1.18-.32-1.48-.92-1.26-2.02,.15-.73,.34-1.51,.23-2.23-.15-.95,.36-1.19,.97-1.71,.96-.81,1.79-1.88,2.37-3,.22-.43-.23-1.44-.67-1.9-.23-.24-1.18,0-1.68,.26-.85,.45-1.6,1.08-2.51,1.72-.45-.65-.82-1.15-1.17-1.67-.99-1.51-1.79-1.49-2.71,.08-.37,.63-.7,1.28-1.04,1.91-.93-.49-1.64-1.04-2.44-1.23-.58-.14-1.39,.01-1.87,.35-.31,.22-.47,1.21-.24,1.5,.44,.58,1.18,1.24,1.83,1.29,2.28,.16,4.37,2.73,3.51,4.84-.7,1.72-1.81,3.26-2.59,4.61,.51,1.3,1.31,2.58,1.35,3.87,.01,.46-1.81,.98-2.79,1.47-.1-.17-.2-.34-.29-.51,.08-.2,.14-.42,.26-.59,.71-.99,1.41-1.92-.14-2.84-.21-.13-.17-.95-.02-1.37,.24-.64,.76-1.18,1-1.82,.21-.55,.19-1.19,.27-1.79-.55-.07-1.13-.28-1.64-.18-2.68,.52-2.67,.55-3.13-2.16,0-.06-.01-.12-.02-.17-.2-1.07-.86-1.56-1.94-1.61-1.09-.05-1.13,.69-1.28,1.46-.27,1.35-.83,2.44-2.52,2.23-.21-.03-.54,.02-.65,.16-.37,.48-.74,1-.93,1.56-.04,.11,.67,.58,1.09,.74,2.35,.86,3.98,4.14,3.07,6.99-.66,2.05-2.35,.23-4.06,.61,.4-1.49,.74-2.74,1.12-4.16-.44,.03-1.13-.04-1.74,.15-1.2,.37-1.9-.05-2.32-1.14-.21-.54-.36-1.1-.56-1.64-.91-2.44-3.02-2.95-5.32-1.21,.27,.29,.58,.54,.79,.85,.77,1.19,1.7,2.33,2.21,3.63,.55,1.42-.65,2.28-1.7,2.85-1.15,.62-1.77-.41-2.06-1.24-.45-1.29-.59-2.68-.93-4.01-.16-.64-.35-1.66-.74-1.77-1.05-.31-1.88,.31-2.24,1.4-.26,.8-.48,1.61-.74,2.47-.53-.14-.89-.36-1.19-.29-.84,.21-1.93,.31-2.39,.88-.4,.49-.3,1.66,0,2.36,.31,.75,1.06,1.35,1.71,1.91,1.74,1.5,1.73,2.1-.19,3.4-.79,.54-1.57,1.09-2.5,1.73,.99,1.14,1.82,2.08,2.64,3.02,1.16-.79,2.19-1.49,3.06-2.09,.52,.8,.95,1.47,1.43,2.2,2.1-2.5,3.25-2.39,4.84,.26-.25,1.13-.27,2.25-.37,3.37-.07,.8-.25,1.59-.39,2.39-.23,0-.47,0-.7,0-.43-.99-.86-1.99-1.38-3.22-.63,1.04-1.11,1.84-1.72,2.85-1.18-2.32-3.01-2.4-5-2.06-.8,.14-1.62,.15-2.4,.34-.45,.11-1.13,.39-1.19,.69-.08,.45,.16,1.11,.49,1.47,.45,.49,1.12,.77,1.88,1.26-.42,.56-.68,1.2-1.15,1.49-2.11,1.32-3.85-.19-6.02-1.32,.2,1.38,.44,2.28,.43,3.17-.02,.88-.3,1.76-.53,3.02,.75-.34,1.4-.57,1.98-.91,1.38-.81,2.55-.5,3.4,.75,.46,.69,1.23,1.17,2.22,2.09-.06,1.38,1.45,2.42,2.79,3.49,1.29,1.03,1.8,3.4,4.24,2.37,.59,3.08,3.51,3.44,5.54,5.18-1.23,.81-2.26,1.49-3.65,2.41-.33-1.21-.49-2.15-.84-3-.27-.65-.78-1.19-1.19-1.78-.59,.45-1.3,.81-1.74,1.38-.37,.48-.43,1.2-.7,2.05-1.18-1.1-.65-1.97-.34-2.87,.34-1,.68-2.38-.75-2.51-1.58-.14-1.6-.9-1.59-2.03,0-.47-.17-.95-.32-1.67-1.53,1.38-2.55,.55-3.53-.34-.38-.35-.59-.93-1.02-1.17-.61-.35-1.35-.5-2.03-.73-.17,.68-.61,1.43-.46,2.04,.27,1.07,.9,2.04,1.39,3.08-.23,.15-.41,.3-.61,.4-1.06,.55-2.21,1.16-1.76,2.59,.45,1.4,1.69,1.05,2.79,.92,.49-.06,1.29-.05,1.46,.23,.89,1.45,1.92,2.9,1.49,5.27-1.02-.78-1.75-1.45-2.57-1.96-.84-.52-1.93-1.44-2.63-1.24-1.65,.47-2.23-.14-2.65-1.5-.31-1.01-.64-2.06-2.04-1.9-1.39,.16-1.35,1.35-1.42,2.24-.11,1.52-.75,2.19-2.27,2.49-2.28,.45-3.29,2.43-2.58,4.57,2.02,.05,3.82,.49,4.93,2.52,.63,1.14,1.5,.58,2-.27,.34-.58,.4-1.33,.67-1.96,.68-1.55,2.23-1.89,3.19-.91-.17,.7-.4,1.31-.43,1.92-.04,.78,.16,1.57,.14,2.35-.06,1.51,.62,2.05,2.03,1.47,.53-.22,1.02-.54,1.51-.85,1.81-1.16,5.31-.74,7.05,.91-1.05,1.54-2.47,1.6-4.12,1.23-.65-.14-1.4,.16-2.1,.26,.26,.59,.53,1.18,.79,1.77,.04,.1,.04,.22,.15,.84-.97-.28-1.72-.56-2.5-.71-.47-.09-.98,.04-1.46,.07,.04,.44,.09,.87,.13,1.31,.04,.4,.13,.8,.1,1.2-.07,.8-.22,1.59-.33,2.39,.77-.06,1.57,0,2.29-.22,1.8-.54,3.55-1.14,5.06,.58,.75-1.45,1.22-2.95,2.17-4.03,.95-1.08,2.38-1.74,3.6-2.58,.13,.14,.26,.29,.4,.43v2.02c-.81,.19-1.91,.21-2.01,.53-.2,.66,.02,1.52,.28,2.22,.25,.67,.76,1.23,1.41,2.22-1.03-.12-1.64-.12-2.21-.27-2.67-.7-3.78,.36-3.15,3.04,.07,.32,.12,.64,.15,.75-1.39-.18-2.74-.55-4.04-.43-.61,.06-1.31,.98-1.6,1.67-.11,.26,.72,1.08,1.25,1.44,.7,.47,1.54,.75,2.32,1.11-.05,.23-.1,.47-.16,.7-.84-.04-1.69-.18-2.51-.09-.73,.08-1.42,.44-2.13,.67,.24,.64,.43,1.31,.75,1.92,.2,.39,.58,.68,.56,.65-.53,2.23-1.14,4.09-1.35,5.98-.08,.72,.74,1.54,1.15,2.32,.57-.33,1.25-.56,1.7-1.02,1.74-1.76,2.23-1.9,4.9-.79-.12-1.61-.23-3.03-.35-4.59,1.81,.66,2.67-.26,3.35-1.66,.36-.73,.88-1.86,1.92-1.1,1.63,1.18,3.66,2.15,3.61,5.26,1.34-1.1,2.3-1.88,3.49-2.85,.07,1.24,.11,2.1,.16,2.96,.12,2.05,.93,2.62,2.62,1.49,1.45-.96,2.9-.93,4.44-.85,.36,.02,.96,.24,1.01,.46,.08,.37-.06,1-.34,1.21-.94,.69-1.98,1.24-3.06,1.89-.31,1.23,.08,1.92,1.64,1.9,.54,0,1.3,.46,1.6,.94,1.02,1.65,1.36,1.77,2.83,.36,1.13-1.08,2.21-2.13,4.01-1.56-.16-1.79-.41-3.4-.39-5,0-.51,.7-1.02,1.09-1.52,.36,.39,.94,.74,1.03,1.19,.18,.89-.09,1.9,.18,2.75,.21,.65,.92,1.22,1.55,1.6,.15,.09,.95-.63,1.25-1.11,.4-.62,.59-1.38,.89-2.06,.51-1.13,1.3-1.32,2.4-.78,.5,.25,1.12,.26,1.83,.41,.6,1.64,.4,1.89-1.4,2.53-.88,.31-1.75,.93-2.37,1.63-.89,1.01-1.54,2.24-2.28,3.34,1.2,.27,2.34,.52,3.66,.82,.19-.31,.45-.92,.89-1.36,.6-.6,1.33-1.07,2.01-1.6,.44,.68,.96,1.32,1.31,2.04,.53,1.07,.81,2.29,1.45,3.28,.65,1.01,1.67,1.03,2.05-.22,.38-1.23,.34-2.57,.56-3.86,.06-.39,.31-1,.54-1.04,.35-.05,.83,.24,1.12,.53,.26,.27,.25,.81,.51,1.08,.48,.5,1.07,.88,1.61,1.31-.01-.65-.03-1.29-.04-1.94,0-.11,.03-.22,.04-.33,1.53-1.19,1.63-2.37,.23-3.8-.6-.61-1.4-1.02-2.03-1.61-.58-.55-1.06-1.21-1.58-1.82,.1-.16,.2-.33,.3-.49,.5,.08,1,.18,1.51,.22,.67,.05,1.48,.3,1.98,.02,1.3-.74,1.91-.12,2.51,.88,.52,.86,1.09,1.68,1.9,2.93,.57-1.69,.97-2.86,1.37-4.02,1.79,.39,2.01,1.01,1.02,2.48-.66,.98-1.22,2.04-1.83,3.06,.15,.1,.29,.19,.44,.29,1.74-.49,3.48-.97,5.17-1.44,.41,1.13,.78,2.17,1.16,3.21,.16,.11,.32,.21,.48,.32,.62-3.35,3.5-.9,5.11-2.48-1.07-1.16-2.13-2.2-3.05-3.35-.32-.4-.57-1.43-.39-1.57,1.38-1.06,2.87-1.96,4.53-3.05v4.33c1.69,.79,1.62,.8,1.86,2.7,.09,.71,.73,1.97,.97,1.94,.89-.12,1.84-.55,2.53-1.14,.34-.29,.36-1.25,.17-1.79-.71-2.08-.28-3.85,1.63-5.53,.42,2.26,2.08,2.16,3.76,2.11,1.37-.04,2.57,.32,2.88,1.89,.29,1.45,.97,1.27,1.95,.63,.62-.4,1.34-.63,2.08-.97-.31-.83-.81-1.72-.96-2.67-.14-.91-.17-1.98,.19-2.79,1.11-2.54,.84-3.29-1.8-4.27-1.4-.52-2.79-1.1-4.1-1.8-.4-.21-.67-.91-.72-1.41-.02-.23,.74-.8,.98-.72,.37,.13,.53,.76,.89,1.03,.63,.47,1.56,1.3,1.97,1.11,.73-.34,1.62-1.3,1.65-2.03,.1-2.63-.03-2.64,2.49-1.88,.22,.07,.46,.24,.66,.2,.84-.15,1.86-.11,2.47-.59,.92-.71,.75-1.75,.17-2.81-.61-1.12-.96-2.39-1.62-4.1-.98,.31-2.36,.75-3.8,1.21-.79-1.13-1.7-2.43-2.61-3.73,.14-.2,.28-.41,.41-.61,.52,.28,1.21,.44,1.52,.87,.75,1.05,1.67,1.34,2.86,1.14,1.34-.23,2.69-.45,3.87-.65v-7.88c.77-.47,1.85-1.12,2.47-1.5,.39-1.33,.58-2.23,.93-3.05,.24-.57,.84-1,1.04-1.58,.18-.51,.22-1.53,0-1.64-.57-.27-1.36-.3-1.99-.14-.43,.11-.68,.79-1.11,1.05-.69,.42-1.45,.7-2.19,1.04-.19-.75-.43-1.5-.53-2.26-.04-.35,.21-.73,.39-1.3,2.85,2.14,4.79-1.63,7.34-.75,.38-.93,.69-1.71,1.15-2.83-1.88-.25-3.61-.48-5.5-.74Zm-22.26,18.74c-1.05,0-6.52-.14-8.3-.29-1.1-.1-1.34-.24-1.34-.48,0-.19,.1-.24,.34-.34,.34-.14,.29-.86,.19-1.73l-2.3-25.03-11.89,25.23c-1.01,2.11-1.15,2.54-1.58,2.54-.33,0-.58-.48-1.49-2.21-1.25-2.35-5.37-10.65-5.61-11.13-.43-.86-5.95-12.71-6.47-14l-1.97,22.59c-.05,.77-.1,1.44-.1,2.25,0,1.2,.58,1.58,1.29,1.73,.81,.19,1.44,.19,1.73,.19s.48,.1,.48,.24c0,.34-.24,.43-.72,.43-1.77,0-4.22-.14-4.6-.14-.43,0-2.73,.14-4.03,.14-.48,0-.82-.05-.82-.38,0-.19,.24-.29,.48-.29,.38,0,.72,0,1.44-.14,1.58-.29,1.68-2.01,1.92-3.98l3.45-31.17c.05-.53,.24-.96,.53-.96s.48,.19,.72,.72l14.67,30.17,14.1-30.12c.19-.43,.38-.77,.72-.77s.48,.38,.58,1.29l3.21,29.45c.19,1.73,.53,4.41,2.59,5.08,1.39,.43,2.49,.43,2.97,.43,.24,0,.53,.05,.53,.29,0,.29-.14,.38-.72,.38Z"/>
</svg>