<?xml version="1.0" encoding="UTF-8"?>
<svg id="Calque_1" data-name="Calque 1" xmlns="http://www.w3.org/2000/svg" viewBox="0 0 2420 519.01">
  <defs>
    <style>
      .cls-1 {
        fill: #004852;
      }
    </style>
  </defs>
  <path class="cls-1" d="M2420,0V489s-5.27-2.11-8-6c-3.24-4.61-1.25-7.38-4-14-.36-.86-3.21-7.47-10-12-2.47-1.65-6.65-4.44-10-3-2.83,1.22-2.03,4.16-5,6-3.96,2.46-7.18-1.67-13,0-5.37,1.54-5.38,5.83-10,6-3.16,.12-11.94-4.16-9-3h0s2.59-8.61,1-17c-.37-1.97-1.35-5.94-4-10-1.9-2.92-2.59-2.7-5-6-3.97-5.43-2.7-6.84-6-11-3.89-4.91-6.57-4.11-8-8-1.38-3.75,.65-5.76-1-9-1.41-2.76-4.27-4.04-7-5-14.18-4.99-21.34-.25-34-5-4.95-1.86-6.27-3.49-11-4-1.47-.16-8.34-.76-15,3-4.37,2.47-9,7-9,7h0c-16.36,4.15-20,8-20,8-1.05,1.12-3.65,3.94-4,8-.07,.82-.13,2.62,2,8,2.68,6.78,4.16,7.43,5,11,.9,3.83,.08,6.91-1,11-2.34,8.84-5.96,9.65-7,17-.23,1.59,.1,.48,0,10-.09,8.51-.36,11.22-2,12-2,.95-6-1-6-1h0s-1.34-2.93-3-4c-2.73-1.75-5.53,2.04-10,1-2.48-.58-2.03-1.84-6-4-2.58-1.4-3.29-1.16-9-3-6.63-2.14-6.38-2.7-9-3-2.14-.24-7.07-.8-10,2-1.88,1.8-1.47,3.58-3,12-.93,5.11-1.4,7.67-2,9-3.11,6.85-10.78,9.77-14,11-9.44,3.6-12.02-.07-18,4-4.27,2.91-4.16,5.6-10,9-2.76,1.6-5.44,3.17-9,3-3.08-.14-5.72-1.76-11-5-3.38-2.07-2.67-1.98-6-4-5.46-3.31-7.27-3.5-9-6-1.49-2.14-1.78-4.34-2-6-.52-3.91,.4-7.62,1-10,.82-3.28,1.37-3.73,1-5-.63-2.15-2.68-2.54-6-5-2-1.49-3.33-2.99-6-6-3.85-4.34-5.77-6.51-6-9-.25-2.7,1.05-3.97,0-6-.77-1.49-2.17-2.16-4-3-5.09-2.34-7.91-1.14-9-3-.39-.65-.24-1.14,1-6,1.47-5.75,1.79-7.14,1-8-1.02-1.11-2.57,.11-4-1-2.22-1.72,.13-5.75-2-8-1.96-2.07-5.21,.03-7-2-1.83-2.07,.76-5.18-1-8-.67-1.08-1.87-1.93-7-3-9.35-1.94-10.84-.26-13-2-4.13-3.33,.25-10.35-4-16-2.52-3.34-6.5-4.12-11-5-14.14-2.76-21.48,4.55-29,0-3.49-2.11-4.95-5.53-6-8-3.78-8.86,1.3-14.41-1-29-.59-3.77-1.4-6.41-3-9-.92-1.5-3.8-6.17-9-8-7.37-2.6-11.77,3.21-19,0-1.99-.88-1.33-1.18-6-4-2.38-1.44-6.13-3.7-10-5-1.56-.52-5.97-1.83-14-1-14.56,1.51-16.92,7.57-28,8-2.57,.1-10.03,.06-17-4-9.87-5.76-8.05-13.38-18-27-10.64-14.58-23.82-21.05-30-24-6.8-3.24-12.64-5.93-20-5-6.33,.8-6.4,3.34-16,5-4.86,.84-9.04,.91-11,4-1.31,2.06-.45,3.62-2,5-2.18,1.94-4.86-.28-9,1-3.85,1.19-6.01,4.49-7,6-1.92,2.93-1.69,4.62-3,10-1.93,7.92-2.89,11.88-6,15-2.21,2.21-2.76,1.31-10,6-3.85,2.5-5.78,3.74-7,5-3.23,3.32-2.66,5.34-7,17-2.69,7.22-4.12,9.71-6,12-1.24,1.5-2.65,3.22-5,5-3.41,2.58-5.23,2.61-7,5-1.62,2.19-1.85,4.56-2,6-.59,5.87,2.65,8.35,1,11-1.2,1.94-4.17,2.59-6,3-2.82,.63-4.01-.02-5,1-1.63,1.68,.43,4.61-1,6-1.49,1.44-4.3-1.14-8,0-2.52,.78-2.65,2.42-5,4-3.68,2.48-6.98,.88-13,1-2.96,.06-7.31,1.37-16,4-8.38,2.53-7.83,2.82-15,5-13.49,4.1-14.81,2.88-19,6-3.96,2.95-3.45,4.53-10,10-3.26,2.72-5.5,4.56-9,6-3,1.23-9.55,3.93-14,1-2.19-1.44-5.12-5.06-6-9-.23-1.03-.5-2.88-2-4-1.26-.94-2.1-.39-3-1-2.26-1.53,.48-6.7,0-15-.2-3.38-.35-6.08-2-9-1.37-2.44-2.52-2.78-3-5-.71-3.28,1.25-5.07,0-7-.73-1.12-2-1.46-4-2-3.81-1.02-5.36,.11-7-1-.44-.3-1.44-1.14-2-6-.88-7.67,1.06-10.33-1-13-1.22-1.57-1.95-.72-5-3-3.12-2.33-4.81-5.05-6-7-2.94-4.83-2.11-6.3-4-9-2.81-4.01-7.63-5.05-12-6-3.99-.86-15.76-3.41-26,3-6.74,4.22-9.49,10.81-15,24-5.33,12.76-7.99,19.13-8,27,0,4.1,.57,10.27-3,16-.88,1.42-2.75,4.32-6,5-2.41,.51-4.6-.41-6-1-2.17-.91-2.59-1.71-6-4-2.47-1.66-3.7-2.48-5-3-4.93-1.96-9.98-.33-11,0-4.56,1.47-5.05,3.64-9,4-.94,.09-2.22,.08-6-1-7.31-2.09-8.04-3.65-13-5-6.63-1.81-7.82,.29-12-2-2.83-1.55-4.5-3.74-7-7-3.81-4.98-3.8-7.29-7-9-2.94-1.57-4.23-.3-6-2-2.1-2.02-2.06-5.52-2-10,.06-4.41,.79-5.18,0-7-1.35-3.13-5.03-4.35-7-5-7.03-2.33-10.53,.96-15-2-2.63-1.74-3.77-4.43-4-5-1.27-3.14-.08-4.71-1-10-.44-2.52-.75-4.2-2-6-.43-.62-2.86-4.11-6-4-1.01,.03-1.8,.43-7,5-3.62,3.18-4.55,4.14-6,4-1.16-.11-2.12-1.08-4-3-1.5-1.54-2.89-2.96-4-5-.69-1.26-1.36-2.93-2-9-.81-7.78,0-8.01-1-11-1.28-3.86-3.61-6.46-5-8-3.57-3.98-5.13-3.42-7-6-3.83-5.28,.67-10.41-2-15-4.05-6.96-21.63-7.61-26-1-1.77,2.68,.2,4.18,0,18-.04,2.82-.18,7.09-2,12-1.73,4.69-3.61,6.24-5,7-.6,.33-2.59,1.39-5,1-1.34-.22-2.25-.8-5-3-3.71-2.97-4.22-3.66-6-5-1.71-1.28-3.47-2.19-7-4-6.8-3.49-7.8-3.21-9-5-1.49-2.23-.37-3.29-2-8-.92-2.65-1.59-4.58-3-6-1.31-1.32-3.9-2.81-18-1-7.54,.97-8.07,1.56-14,2-8.78,.65-12.13-.31-14-1-.77-.29-4.37-1.67-8-5-2.11-1.94-6.07-5.57-7-11-.63-3.7,.89-3.85,1-11,.07-4.79,.08-7.72-2-10-1.41-1.55-3.71-2.73-6-3-2.47-.3-3.24,.66-5,0-2.55-.95-3.63-3.97-4-5-1.64-4.56,.75-6.82-1-9-1.83-2.28-5.05-.57-7-3-1.56-1.95-.21-3.95-1-7-1.1-4.25-5.36-6.56-8-8-7.72-4.2-11.49-.7-19-5-4.33-2.48-3.6-3.94-7-5-4.66-1.45-6.83,1.04-16,2-2.36,.25-6.21,.63-11,0-3.96-.52-4.77-1.23-11-3-10.9-3.1-10.21-1.45-18-4-5.53-1.81-8.13-3.38-11-2-2.04,.98-2.97,2.85-4,5-3.12,6.51-4.01,16.81,1,21,1.72,1.44,3.04,1.24,4,3,1.46,2.67,.42,6.82-2,9-1.88,1.69-3.47,1.18-7,2-5.53,1.28-9.13,4.28-16,10-3.56,2.96-5.34,4.44-6,6-1.97,4.65,1.05,7.65-1,14-.56,1.72-1.37,3.15-3,6-2.27,3.97-3.4,5.95-5,7-3.34,2.19-8.56,2.17-12,0-2.46-1.55-2.55-3.29-6-5-1.44-.71-3.2-1.55-5-1-1.98,.61-1.96,2.29-4,4-2.41,2.02-5.96,2.66-9,2-.58-.13-5.37-1.23-7-5-1.25-2.9,.61-4.48-1-8-.87-1.91-2.26-3.27-3-4-2.16-2.12-2.96-1.77-4-3-2.56-3.02,.72-7.01-1-12-.35-1.02-.81-1.79-5-6-9.41-9.45-10.33-8.84-12-12-1.02-1.92-1.68-5.62-3-13-.82-4.59-1.03-7.06-3-10-1.67-2.49-3.8-4.11-5-5-4.35-3.24-6.36-2.57-8-5-1.59-2.36-.3-3.9-1-8-.75-4.36-3-7.21-6-11-3.27-4.14-6.31-6.44-11-10-2.53-1.92-7.23-5.45-14-9-6.13-3.21-7.41-3.01-12-6-6.31-4.11-5.38-5.48-9-7-3.58-1.51-5.29-.5-21,2-8.38,1.33-10.04,1.39-13,3-4.65,2.53-7.59,6.21-9,8-4.59,5.85-3.33,8.02-7,11-1.39,1.13-2.21,1.33-12,4-11.33,3.09-11.87,3.26-13,4-5.82,3.8-4.68,7.77-10,10-4.5,1.88-6.77-.36-10,2-3.75,2.74-1.8,6.57-5,9-5.16,3.91-14.21-3.05-18,1-.18,.19-.07,.12-3,6-1.32,2.65-1.85,3.68-2,4-3.63,7.47,3.72,21.51-1,26-1.8,1.71-4.66,1.38-8,1-5.33-.61-9.05-3.62-12-6-2.1-1.7-3.15-2.54-4-4-1.35-2.31-1.02-3.79-2-10-.83-5.29-1.4-6.27-2-7-2.25-2.75-5.74-2.99-6-3-2.58-.14-4.43,1.02-6,2-2.19,1.37-3.41,2.94-5,5-1.81,2.34-2.72,3.51-3,5-.53,2.79,1.01,3.9,0,6-.5,1.03-1.33,1.69-3,3-1.99,1.57-2.39,1.33-3,2-2.45,2.69,2.61,7.95,1,15-.27,1.18-.88,3.86-3,5-1.69,.9-2.95,.08-6,0-.26,0-4.65-.08-9,2-2.38,1.14-5.73,2.74-7,6-1.69,4.32,2.04,7.03,0,11-1.22,2.37-2.99,2.26-4,5-.82,2.22-.21,3.79,0,6,.37,3.96-.52,10.22-4,13-3.88,3.1-10.78,1.68-15-1-6.03-3.83-4.46-8.87-10-11-4.23-1.62-8.19,.13-11-3-1.23-1.37-.77-2.05-2-3-3.09-2.41-7.13,1.02-10-1-2.29-1.61-.7-4.49-3-7-.66-.72-2.33-2.16-11-2-9.97,.19-12.67,2.19-16,0-2.73-1.79-1.83-3.73-5-6-4.2-3.02-9.49-2.28-11-2-6.6,1.21-12.95,6.79-13,12-.02,2.17,1.05,3.91,0,5-1.36,1.4-4.07-.54-6,1-1.11,.89-.49,1.76-2,5-.96,2.05-1.61,3.45-3,4-1.59,.63-2.54-.5-4,0-1.82,.62-2.56,3.11-3,5-2.27,9.77,1.13,14.11-2,19-1.91,2.99-3.61,2.04-5,5-2.49,5.33,2.28,9.96,0,13-2.43,3.24-8.95-.55-12,3-2.32,2.69,.54,5.91-2,11-.36,.72-2.2,4.23-6,6-4.84,2.25-7.77-.68-13,2-1.17,.6-3.48,1.78-4,4-.49,2.07,.81,4.12,2,6,2.16,3.4,4.12,4.11,4,6-.04,.58-.28,1.42-2,3-4.33,3.98-9.62,4.94-10,5-4.97,.84-6.41-.74-10,1-.78,.38-2.51,1.21-4,3-2.04,2.45-1.53,4.15-3,5-1.87,1.09-3.66-1.12-8-2-.34-.07-8.24-1.58-11,2-2.02,2.62,.33,5.88-2,8-1.55,1.41-3.03,.36-5,2-2.11,1.75-1.21,3.61-3,5-2.61,2.02-5.92-.81-8,1-2.24,1.95,.17,6.49-2,8-1.8,1.25-4.33-1.26-6,0-1.56,1.18-.08,3.93-1,8-.06,.27-1.08,4.56-4,7-3.22,2.7-7.86,2.17-17,1-8.52-1.09-10.3-2.47-14-1-3.06,1.21-3.99,3-7,3-2.78,0-6.19-1.53-7-4-.68-2.08,.95-3.36,0-5-1.13-1.94-4.48-2-5-2-3.19,0-4.87,1.88-6,1-.9-.7-.08-2.11-1-3-1.39-1.34-4.1,1.08-6,0-1.51-.86-.84-2.98-2-10-.63-3.81-1.2-5.47-2-7-1.12-2.13-1.7-3.25-3-4-3.42-1.98-7.18,1.27-10-1-1.01-.81-.87-1.51-2-2-1.96-.85-3.47,.77-5,0-1.46-.74-.8-2.59-2-4-2.41-2.82-7.91,1.28-12-1-4.06-2.26-1.48-7.9-6-12-3.66-3.32-9.22-3.13-13-3-7.64,.26-11.2,3.43-15,1-.31-.2-2.42-1.59-3-4-.64-2.64,1.12-4.17,2-8,.85-3.7,.24-6.79,0-8-1.17-5.93-4.43-6.92-4-11,.33-3.1,2.3-3.38,2-6-.1-.88-.44-1.84-5-7-3.12-3.52-3.56-3.76-4-5-.94-2.66,.25-4.04,0-7-.27-3.25-2.02-5.48-4-8-5.02-6.4-11.82-9.66-15-11-7.45-3.14-13.53-3.53-22-4-6.24-.34-18.87-.56-33,4-7.72,2.49-10.1,4.54-11,7-1.61,4.42,1.71,9.76-1,12-.78,.65-1.43,.5-4,2-1.54,.89-2.71,1.76-3,2-4.06,3.31,1.47,16.4-1,28-.8,3.74-1.97,5.18-3,6-2.29,1.82-4.37,.93-6,3-1.21,1.54-.45,2.52-2,5-.69,1.1-1.48,2.36-3,3-2.11,.88-4.52,.1-6-1-2.01-1.49-1.61-3.05-3-5-1.21-1.7-3.02-2.64-15-5-6.38-1.25-7.95-1.39-9-3-1.43-2.18,.24-3.8-1-8-.78-2.65-1.56-2.4-4-7-2.59-4.87-2.1-5.9-4-8-2.17-2.4-4.8-3.29-7-4-5.58-1.81-7.89-.26-13-1-6.41-.92-6.43-3.87-13-6-7.02-2.28-17.87-2.43-22,3-3.65,4.79,1.35,9.45-2,15-4.25,7.04-13.87,2.16-23,10-6.98,5.99-7.37,14.01-12,14-3.9,0-5.71-5.69-8-5-3.4,1.03,.94,13.51-6,21-1.56,1.69-4.75,4.26-9,5H0V1L2420,0Z"/>
</svg>