<?xml version="1.0" encoding="UTF-8"?>
<svg id="Calque_1" data-name="Calque 1" xmlns="http://www.w3.org/2000/svg" viewBox="0 0 519.01 2420">
  <defs>
    <style>
      .cls-1 {
        fill: #004852;
      }
    </style>
  </defs>
  <path class="cls-1" d="M519.01,2420H30.01s2.11-5.27,6-8c4.61-3.24,7.38-1.25,14-4,.86-.36,7.47-3.21,12-10,1.65-2.47,4.44-6.65,3-10-1.22-2.83-4.16-2.03-6-5-2.46-3.96,1.67-7.18,0-13-1.54-5.37-5.83-5.38-6-10-.12-3.16,4.16-11.94,3-9h0s8.61,2.59,17,1c1.97-.37,5.94-1.35,10-4,2.92-1.9,2.7-2.59,6-5,5.43-3.97,6.84-2.7,11-6,4.91-3.89,4.11-6.57,8-8,3.75-1.38,5.76,.65,9-1,2.76-1.41,4.04-4.27,5-7,4.99-14.18,.25-21.34,5-34,1.86-4.95,3.49-6.27,4-11,.16-1.47,.76-8.34-3-15-2.47-4.37-7-9-7-9h0c-4.15-16.36-8-20-8-20-1.12-1.05-3.94-3.65-8-4-.82-.07-2.62-.13-8,2-6.78,2.68-7.43,4.16-11,5-3.83,.9-6.91,.08-11-1-8.84-2.34-9.65-5.96-17-7-1.59-.23-.48,.1-10,0-8.51-.09-11.22-.36-12-2-.95-2,1-6,1-6h0s2.93-1.34,4-3c1.75-2.73-2.04-5.53-1-10,.58-2.48,1.84-2.03,4-6,1.4-2.58,1.16-3.29,3-9,2.14-6.63,2.7-6.38,3-9,.24-2.14,.8-7.07-2-10-1.8-1.88-3.58-1.47-12-3-5.11-.93-7.67-1.4-9-2-6.85-3.11-9.77-10.78-11-14-3.6-9.44,.07-12.02-4-18-2.91-4.27-5.6-4.16-9-10-1.6-2.76-3.17-5.44-3-9,.14-3.08,1.76-5.72,5-11,2.07-3.38,1.98-2.67,4-6,3.31-5.46,3.5-7.27,6-9,2.14-1.49,4.34-1.78,6-2,3.91-.52,7.62,.4,10,1,3.28,.82,3.73,1.37,5,1,2.15-.63,2.54-2.68,5-6,1.49-2,2.99-3.33,6-6,4.34-3.85,6.51-5.77,9-6,2.7-.25,3.97,1.05,6,0,1.49-.77,2.16-2.17,3-4,2.34-5.09,1.14-7.91,3-9,.65-.39,1.14-.24,6,1,5.75,1.47,7.14,1.79,8,1,1.11-1.02-.11-2.57,1-4,1.72-2.22,5.75,.13,8-2,2.07-1.96-.03-5.21,2-7,2.07-1.83,5.18,.76,8-1,1.08-.67,1.93-1.87,3-7,1.94-9.35,.26-10.84,2-13,3.33-4.13,10.35,.25,16-4,3.34-2.52,4.12-6.5,5-11,2.76-14.14-4.55-21.48,0-29,2.11-3.49,5.53-4.95,8-6,8.86-3.78,14.41,1.3,29-1,3.77-.59,6.41-1.4,9-3,1.5-.92,6.17-3.8,8-9,2.6-7.37-3.21-11.77,0-19,.88-1.99,1.18-1.33,4-6,1.44-2.38,3.7-6.13,5-10,.52-1.56,1.83-5.97,1-14-1.51-14.56-7.57-16.92-8-28-.1-2.57-.06-10.03,4-17,5.76-9.87,13.38-8.05,27-18,14.58-10.64,21.05-23.82,24-30,3.24-6.8,5.93-12.64,5-20-.8-6.33-3.34-6.4-5-16-.84-4.86-.91-9.04-4-11-2.06-1.31-3.62-.45-5-2-1.94-2.18,.28-4.86-1-9-1.19-3.85-4.49-6.01-6-7-2.93-1.92-4.62-1.69-10-3-7.92-1.93-11.88-2.89-15-6-2.21-2.21-1.31-2.76-6-10-2.5-3.85-3.74-5.78-5-7-3.32-3.23-5.34-2.66-17-7-7.22-2.69-9.71-4.12-12-6-1.5-1.24-3.22-2.65-5-5-2.58-3.41-2.61-5.23-5-7-2.19-1.62-4.56-1.85-6-2-5.87-.59-8.35,2.65-11,1-1.94-1.2-2.59-4.17-3-6-.63-2.82,.02-4.01-1-5-1.68-1.63-4.61,.43-6-1-1.44-1.49,1.14-4.3,0-8-.78-2.52-2.42-2.65-4-5-2.48-3.68-.88-6.98-1-13-.06-2.96-1.37-7.31-4-16-2.53-8.38-2.82-7.83-5-15-4.1-13.49-2.88-14.81-6-19-2.95-3.96-4.53-3.45-10-10-2.72-3.26-4.56-5.5-6-9-1.23-3-3.93-9.55-1-14,1.44-2.19,5.06-5.12,9-6,1.03-.23,2.88-.5,4-2,.94-1.26,.39-2.1,1-3,1.53-2.26,6.7,.48,15,0,3.38-.2,6.08-.35,9-2,2.44-1.37,2.78-2.52,5-3,3.28-.71,5.07,1.25,7,0,1.12-.73,1.46-2,2-4,1.02-3.81-.11-5.36,1-7,.3-.44,1.14-1.44,6-2,7.67-.88,10.33,1.06,13-1,1.57-1.22,.72-1.95,3-5,2.33-3.12,5.05-4.81,7-6,4.83-2.94,6.3-2.11,9-4,4.01-2.81,5.05-7.63,6-12,.86-3.99,3.41-15.76-3-26-4.22-6.74-10.81-9.49-24-15-12.76-5.33-19.13-7.99-27-8-4.1,0-10.27,.57-16-3-1.42-.88-4.32-2.75-5-6-.51-2.41,.41-4.6,1-6,.91-2.17,1.71-2.59,4-6,1.66-2.47,2.48-3.7,3-5,1.96-4.93,.33-9.98,0-11-1.47-4.56-3.64-5.05-4-9-.09-.94-.08-2.22,1-6,2.09-7.31,3.65-8.04,5-13,1.81-6.63-.29-7.82,2-12,1.55-2.83,3.74-4.5,7-7,4.98-3.81,7.29-3.8,9-7,1.57-2.94,.3-4.23,2-6,2.02-2.1,5.52-2.06,10-2,4.41,.06,5.18,.79,7,0,3.13-1.35,4.35-5.03,5-7,2.33-7.03-.96-10.53,2-15,1.74-2.63,4.43-3.77,5-4,3.14-1.27,4.71-.08,10-1,2.52-.44,4.2-.75,6-2,.62-.43,4.11-2.86,4-6-.03-1.01-.43-1.8-5-7-3.18-3.62-4.14-4.55-4-6,.11-1.16,1.08-2.12,3-4,1.54-1.5,2.96-2.89,5-4,1.26-.69,2.93-1.36,9-2,7.78-.81,8.01,0,11-1,3.86-1.28,6.46-3.61,8-5,3.98-3.57,3.42-5.13,6-7,5.28-3.83,10.41,.67,15-2,6.96-4.05,7.61-21.63,1-26-2.68-1.77-4.18,.2-18,0-2.82-.04-7.09-.18-12-2-4.69-1.73-6.24-3.61-7-5-.33-.6-1.39-2.59-1-5,.22-1.34,.8-2.25,3-5,2.97-3.71,3.66-4.22,5-6,1.28-1.71,2.19-3.47,4-7,3.49-6.8,3.21-7.8,5-9,2.23-1.49,3.29-.37,8-2,2.65-.92,4.58-1.59,6-3,1.32-1.31,2.81-3.9,1-18-.97-7.54-1.56-8.07-2-14-.65-8.78,.31-12.13,1-14,.29-.77,1.67-4.37,5-8,1.94-2.11,5.57-6.07,11-7,3.7-.63,3.85,.89,11,1,4.79,.07,7.72,.08,10-2,1.55-1.41,2.73-3.71,3-6,.3-2.47-.66-3.24,0-5,.95-2.55,3.97-3.63,5-4,4.56-1.64,6.82,.75,9-1,2.28-1.83,.57-5.05,3-7,1.95-1.56,3.95-.21,7-1,4.25-1.1,6.56-5.36,8-8,4.2-7.72,.7-11.49,5-19,2.48-4.33,3.94-3.6,5-7,1.45-4.66-1.04-6.83-2-16-.25-2.36-.63-6.21,0-11,.52-3.96,1.23-4.77,3-11,3.1-10.9,1.45-10.21,4-18,1.81-5.53,3.38-8.13,2-11-.98-2.04-2.85-2.97-5-4-6.51-3.12-16.81-4.01-21,1-1.44,1.72-1.24,3.04-3,4-2.67,1.46-6.82,.42-9-2-1.69-1.88-1.18-3.47-2-7-1.28-5.53-4.28-9.13-10-16-2.96-3.56-4.44-5.34-6-6-4.65-1.97-7.65,1.05-14-1-1.72-.56-3.15-1.37-6-3-3.97-2.27-5.95-3.4-7-5-2.19-3.34-2.17-8.56,0-12,1.55-2.46,3.29-2.55,5-6,.71-1.44,1.55-3.2,1-5-.61-1.98-2.29-1.96-4-4-2.02-2.41-2.66-5.96-2-9,.13-.58,1.23-5.37,5-7,2.9-1.25,4.48,.61,8-1,1.91-.87,3.27-2.26,4-3,2.12-2.16,1.77-2.96,3-4,3.02-2.56,7.01,.72,12-1,1.02-.35,1.79-.81,6-5,9.45-9.41,8.84-10.33,12-12,1.92-1.02,5.62-1.68,13-3,4.59-.82,7.06-1.03,10-3,2.49-1.67,4.11-3.8,5-5,3.24-4.35,2.57-6.36,5-8,2.36-1.59,3.9-.3,8-1,4.36-.75,7.21-3,11-6,4.14-3.27,6.44-6.31,10-11,1.92-2.53,5.45-7.23,9-14,3.21-6.13,3.01-7.41,6-12,4.11-6.31,5.48-5.38,7-9,1.51-3.58,.5-5.29-2-21-1.33-8.38-1.39-10.04-3-13-2.53-4.65-6.21-7.59-8-9-5.85-4.59-8.02-3.33-11-7-1.13-1.39-1.33-2.21-4-12-3.09-11.33-3.26-11.87-4-13-3.8-5.82-7.77-4.68-10-10-1.88-4.5,.36-6.77-2-10-2.74-3.75-6.57-1.8-9-5-3.91-5.16,3.05-14.21-1-18-.19-.18-.12-.07-6-3-2.65-1.32-3.68-1.85-4-2-7.47-3.63-21.51,3.72-26-1-1.71-1.8-1.38-4.66-1-8,.61-5.33,3.62-9.05,6-12,1.7-2.1,2.54-3.15,4-4,2.31-1.35,3.79-1.02,10-2,5.29-.83,6.27-1.4,7-2,2.75-2.25,2.99-5.74,3-6,.14-2.58-1.02-4.43-2-6-1.37-2.19-2.94-3.41-5-5-2.34-1.81-3.51-2.72-5-3-2.79-.53-3.9,1.01-6,0-1.03-.5-1.69-1.33-3-3-1.57-1.99-1.33-2.39-2-3-2.69-2.45-7.95,2.61-15,1-1.18-.27-3.86-.88-5-3-.9-1.69-.08-2.95,0-6,0-.26,.08-4.65-2-9-1.14-2.38-2.74-5.73-6-7-4.32-1.69-7.03,2.04-11,0-2.37-1.22-2.26-2.99-5-4-2.22-.82-3.79-.21-6,0-3.96,.37-10.22-.52-13-4-3.1-3.88-1.68-10.78,1-15,3.83-6.03,8.87-4.46,11-10,1.62-4.23-.13-8.19,3-11,1.37-1.23,2.05-.77,3-2,2.41-3.09-1.02-7.13,1-10,1.61-2.29,4.49-.7,7-3,.72-.66,2.16-2.33,2-11-.19-9.97-2.19-12.67,0-16,1.79-2.73,3.73-1.83,6-5,3.02-4.2,2.28-9.49,2-11-1.21-6.6-6.79-12.95-12-13-2.17-.02-3.91,1.05-5,0-1.4-1.36,.54-4.07-1-6-.89-1.11-1.76-.49-5-2-2.05-.96-3.45-1.61-4-3-.63-1.59,.5-2.54,0-4-.62-1.82-3.11-2.56-5-3-9.77-2.27-14.11,1.13-19-2-2.99-1.91-2.04-3.61-5-5-5.33-2.49-9.96,2.28-13,0-3.24-2.43,.55-8.95-3-12-2.69-2.32-5.91,.54-11-2-.72-.36-4.23-2.2-6-6-2.25-4.84,.68-7.77-2-13-.6-1.17-1.78-3.48-4-4-2.07-.49-4.12,.81-6,2-3.4,2.16-4.11,4.12-6,4-.58-.04-1.42-.28-3-2-3.98-4.33-4.94-9.62-5-10-.84-4.97,.74-6.41-1-10-.38-.78-1.21-2.51-3-4-2.45-2.04-4.15-1.53-5-3-1.09-1.87,1.12-3.66,2-8,.07-.34,1.58-8.24-2-11-2.62-2.02-5.88,.33-8-2-1.41-1.55-.36-3.03-2-5-1.75-2.11-3.61-1.21-5-3-2.02-2.61,.81-5.92-1-8-1.95-2.24-6.49,.17-8-2-1.25-1.8,1.26-4.33,0-6-1.18-1.56-3.93-.08-8-1-.27-.06-4.56-1.08-7-4-2.7-3.22-2.17-7.86-1-17,1.09-8.52,2.47-10.3,1-14-1.21-3.06-3-3.99-3-7,0-2.78,1.53-6.19,4-7,2.08-.68,3.36,.95,5,0,1.94-1.13,2-4.48,2-5,0-3.19-1.88-4.87-1-6,.7-.9,2.11-.08,3-1,1.34-1.39-1.08-4.1,0-6,.86-1.51,2.98-.84,10-2,3.81-.63,5.47-1.2,7-2,2.13-1.12,3.25-1.7,4-3,1.98-3.42-1.27-7.18,1-10,.81-1.01,1.51-.87,2-2,.85-1.96-.77-3.47,0-5,.74-1.46,2.59-.8,4-2,2.82-2.41-1.28-7.91,1-12,2.26-4.06,7.9-1.48,12-6,3.32-3.66,3.13-9.22,3-13-.26-7.64-3.43-11.2-1-15,.2-.31,1.59-2.42,4-3,2.64-.64,4.17,1.12,8,2,3.7,.85,6.79,.24,8,0,5.93-1.17,6.92-4.43,11-4,3.1,.33,3.38,2.3,6,2,.88-.1,1.84-.44,7-5,3.52-3.12,3.76-3.56,5-4,2.66-.94,4.04,.25,7,0,3.25-.27,5.48-2.02,8-4,6.4-5.02,9.66-11.82,11-15,3.14-7.45,3.53-13.53,4-22,.34-6.24,.56-18.87-4-33-2.49-7.72-4.54-10.1-7-11-4.42-1.61-9.76,1.71-12-1-.65-.78-.5-1.43-2-4-.89-1.54-1.76-2.71-2-3-3.31-4.06-16.4,1.47-28-1-3.74-.8-5.18-1.97-6-3-1.82-2.29-.93-4.37-3-6-1.54-1.21-2.52-.45-5-2-1.1-.69-2.36-1.48-3-3-.88-2.11-.1-4.52,1-6,1.49-2.01,3.05-1.61,5-3,1.7-1.21,2.64-3.02,5-15,1.25-6.38,1.39-7.95,3-9,2.18-1.43,3.8,.24,8-1,2.65-.78,2.4-1.56,7-4,4.87-2.59,5.9-2.1,8-4,2.4-2.17,3.29-4.8,4-7,1.81-5.58,.26-7.89,1-13,.92-6.41,3.87-6.43,6-13,2.28-7.02,2.43-17.87-3-22-4.79-3.65-9.45,1.35-15-2-7.04-4.25-2.16-13.87-10-23-5.99-6.98-14.01-7.37-14-12,0-3.9,5.69-5.71,5-8-1.03-3.4-13.51,.94-21-6-1.69-1.56-4.26-4.75-5-9V0h381l1,2420Z"/>
</svg>