<?xml version="1.0" encoding="UTF-8"?>
<svg id="Calque_1" data-name="Calque 1" xmlns="http://www.w3.org/2000/svg" viewBox="0 0 519.01 2420">
  <defs>
    <style>
      .cls-1 {
        fill: #004852;
      }
    </style>
  </defs>
  <path class="cls-1" d="M210.06,1724.21c1.58,.06,3.15,.32,4.76,.88,2.86,1,5.37,2.9,8.26,3.78,2.91,.89,6.11,.43,9.31-.45,.02-1.19,.64-2.51,1.46-3.33,.91-.91,2.25-1.47,3.54-1.46,.21,0,.42,0,.62,.02,.59,.06,1.21,.1,1.78,.26,.98,.27,1.81,.74,2.57,1.35,.02,0,.04,0,.05-.01,6.4-1.59,13.63-2.57,19.18,1.82,1.77,1.4,3.05,3.3,4.26,5.25,8.16,1.38,16.19,3.52,23.75,6.79,.65,0,1.28,.01,1.87,.1,3.1,.46,5.47,2.01,8.2,3.47,.27,.08,.44,.15,.54,.23,.33-.25,.67-.5,.99-.77,.89-.68,1.77-1.44,2.77-1.96,4.15-2.18,10.36,.25,11.59,5.06,.07,.29,.08,.48,.05,.62,.08,.01,.16,.03,.26,.06,.83,.22,1.64,.56,2.45,.83,.89,.31,1.79,.61,2.67,.94,.62-.35,1.89-.8,2.11-.88,.97-.31,1.89-.38,2.89-.29,3.06,.29,5.4,2.48,6.54,5.24,1.61,3.91,.16,7.72-2.42,10.68,2.93,2.44,6.61,4.26,8.9,7.44,3.81,5.28,1.45,13.17,6.13,17.57,7.24,6.79,19.6-2.31,26.23-6.07,2.82-1.59,6.46-.15,7.35,2.99,1.95,6.95,8.03,11.26,15.04,10.99,4.36-.17,13.21-.37,16.23-3.88,1.89-2.2,2.42-4.83,5.03-6.63,1.85-1.28,4.14-2.14,6.32-2.67,3.77-.92,7.62-.75,11.17,.86,6.04,2.73,9.35,8.51,13.34,13.47,4.94,6.14,9.44,7.09,16.55,3.22,2.17-1.18,5.71-.72,6.84,1.79,2.45,5.45,7.61,5.18,12.91,5.04,5.49-.14,11.2-.68,16.5,1.13,5.27,1.79,9.2,5.79,13.19,9.47,2.09,1.93,4.56,2.48,7.18,2.54V0H137.01V5c.74,4.25,3.31,7.44,5,9,7.49,6.94,19.97,2.6,21,6,.69,2.29-4.99,4.1-5,8,0,4.63,8.01,5.02,14,12,7.84,9.13,2.96,18.75,10,23,5.55,3.35,10.21-1.65,15,2,5.43,4.14,5.28,14.98,3,22-2.13,6.57-5.08,6.59-6,13-.74,5.11,.81,7.42-1,13-.71,2.2-1.6,4.83-4,7-2.1,1.9-3.12,1.41-8,4-4.6,2.44-4.35,3.22-7,4-4.2,1.24-5.82-.43-8,1-1.6,1.05-1.75,2.62-3,9-2.35,11.98-3.3,13.79-5,15-1.95,1.39-3.51,.99-5,3-1.1,1.48-1.88,3.89-1,6,.64,1.52,1.9,2.31,3,3,2.48,1.55,3.46,.79,5,2,2.07,1.63,1.18,3.71,3,6,.82,1.03,2.26,2.2,6,3,11.6,2.47,24.69-3.06,28,1,.24,.29,1.11,1.46,2,3,1.5,2.57,1.35,3.22,2,4,2.24,2.71,7.58-.61,12,1,2.46,.9,4.51,3.28,7,11,4.56,14.13,4.34,26.76,4,33-.47,8.47-.86,14.55-4,22-1.34,3.18-4.6,9.98-11,15-2.52,1.98-4.75,3.73-8,4-2.96,.25-4.34-.94-7,0-1.24,.44-1.48,.88-5,4-5.16,4.56-6.12,4.9-7,5-2.62,.3-2.9-1.67-6-2-4.08-.43-5.07,2.83-11,4-1.21,.24-4.3,.85-8,0-3.83-.88-5.36-2.64-8-2-2.41,.58-3.8,2.69-4,3-2.43,3.8,.74,7.36,1,15,.13,3.78,.32,9.34-3,13-4.1,4.52-9.74,1.94-12,6-2.28,4.09,1.82,9.59-1,12-1.41,1.2-3.26,.54-4,2-.77,1.53,.85,3.04,0,5-.49,1.13-1.19,.99-2,2-2.27,2.82,.98,6.58-1,10-.75,1.3-1.87,1.88-4,3-1.53,.8-3.19,1.37-7,2-7.02,1.16-9.14,.49-10,2-1.08,1.9,1.34,4.61,0,6-.89,.92-2.3,.1-3,1-.88,1.13,1.01,2.81,1,6,0,.52-.06,3.87-2,5-1.64,.95-2.92-.68-5,0-2.47,.81-4,4.22-4,7,0,3.01,1.79,3.94,3,7,1.47,3.7,.09,5.48-1,14-1.17,9.14-1.7,13.78,1,17,2.44,2.92,6.73,3.94,7,4,4.07,.92,6.82-.56,8,1,1.26,1.67-1.25,4.2,0,6,1.51,2.17,6.05-.24,8,2,1.81,2.08-1.02,5.39,1,8,1.39,1.79,3.25,.89,5,3,1.64,1.97,.59,3.45,2,5,2.12,2.33,5.38-.02,8,2,3.58,2.76,2.07,10.66,2,11-.88,4.34-3.09,6.13-2,8,.85,1.47,2.55,.96,5,3,1.79,1.49,2.62,3.22,3,4,1.74,3.59,.16,5.03,1,10,.06,.38,1.02,5.67,5,10,1.58,1.72,2.42,1.96,3,2,1.89,.12,2.6-1.84,6-4,1.88-1.19,3.93-2.49,6-2,2.22,.52,3.4,2.83,4,4,2.68,5.23-.25,8.16,2,13,1.77,3.8,5.28,5.64,6,6,5.09,2.54,8.31-.32,11,2,3.55,3.05-.24,9.57,3,12,3.04,2.28,7.67-2.49,13,0,2.96,1.39,2.01,3.09,5,5,4.89,3.13,9.23-.27,19,2,1.89,.44,4.38,1.18,5,3,.5,1.46-.63,2.41,0,4,.55,1.39,1.95,2.04,4,3,3.24,1.51,4.11,.89,5,2,1.54,1.93-.4,4.64,1,6,1.09,1.05,2.83-.02,5,0,5.21,.05,10.79,6.4,12,13,.28,1.51,1.02,6.8-2,11-2.27,3.17-4.21,2.27-6,5-2.19,3.33-.19,6.03,0,16,.16,8.67-1.28,10.34-2,11-2.51,2.3-5.39,.71-7,3-2.02,2.87,1.41,6.91-1,10-.95,1.23-1.63,.77-3,2-3.13,2.81-1.38,6.77-3,11-2.13,5.54-7.17,3.97-11,10-2.68,4.22-4.1,11.12-1,15,2.78,3.48,9.04,4.37,13,4,2.21-.21,3.78-.81,6,0,2.74,1.01,2.63,2.78,5,4,3.97,2.04,6.68-1.69,11,0,3.26,1.27,4.86,4.62,6,7,2.08,4.35,2.01,8.74,2,9-.08,3.05-.9,4.31,0,6,1.14,2.12,3.82,2.73,5,3,7.05,1.61,12.31-3.45,15-1,.67,.61,.43,1.01,2,3,1.31,1.67,1.97,2.5,3,3,2.1,1.01,3.21-.53,6,0,1.49,.28,2.66,1.19,5,3,2.06,1.59,3.63,2.81,5,5,.98,1.57,2.14,3.42,2,6-.01,.26-.25,3.75-3,6-.73,.6-1.71,1.17-7,2-6.21,.98-7.69,.65-10,2-1.46,.85-2.3,1.9-4,4-2.38,2.95-5.39,6.67-6,12-.38,3.34-.71,6.2,1,8,4.49,4.72,18.53-2.63,26,1,.32,.15,1.35,.68,4,2,5.88,2.93,5.81,2.82,6,3,4.05,3.79-2.91,12.84,1,18,2.43,3.2,6.26,1.25,9,5,2.36,3.23,.12,5.5,2,10,2.23,5.32,6.2,4.19,10,10,.74,1.13,.91,1.67,4,13,2.67,9.79,2.87,10.61,4,12,2.98,3.67,5.15,2.41,11,7,1.79,1.41,5.47,4.35,8,9,1.61,2.96,1.67,4.62,3,13,2.5,15.71,3.51,17.42,2,21-1.52,3.62-2.89,2.69-7,9-2.99,4.59-2.79,5.87-6,12-3.55,6.77-7.08,11.47-9,14-3.56,4.69-5.86,7.73-10,11-3.79,3-6.64,5.25-11,6-4.1,.7-5.64-.59-8,1-2.43,1.64-1.76,3.65-5,8-.89,1.2-2.5,3.33-5,5-2.94,1.97-5.41,2.18-10,3-7.38,1.32-11.08,1.98-13,3-3.16,1.67-2.55,2.59-12,12-4.21,4.19-4.98,4.65-6,5-4.99,1.72-8.98-1.56-12,1-1.23,1.04-.88,1.84-3,4-.73,.74-2.09,2.13-4,3-3.52,1.61-5.1-.25-8,1-3.77,1.63-4.87,6.42-5,7-.66,3.04-.02,6.59,2,9,1.71,2.04,3.39,2.02,4,4,.55,1.8-.29,3.56-1,5-1.71,3.45-3.45,3.54-5,6-2.17,3.44-2.19,8.66,0,12,1.05,1.6,3.03,2.73,7,5,2.85,1.63,4.28,2.44,6,3,6.35,2.05,9.35-.97,14,1,1.56,.66,3.04,2.44,6,6,5.72,6.87,8.72,10.47,10,16,.82,3.53,.31,5.12,2,7,2.18,2.42,6.33,3.46,9,2,1.76-.96,1.56-2.28,3-4,4.19-5.01,14.49-4.12,21-1,2.15,1.03,4.02,1.96,5,4,1.38,2.88-.19,5.47-2,11-2.55,7.79-.9,7.1-4,18-1.77,6.23-2.48,7.04-3,11-.63,4.79-.25,8.64,0,11,.96,9.17,3.45,11.34,2,16-1.06,3.4-2.52,2.67-5,7-4.3,7.51-.8,11.28-5,19-1.44,2.64-3.75,6.9-8,8-3.05,.79-5.05-.56-7,1-2.43,1.95-.72,5.17-3,7-2.18,1.75-4.44-.64-9,1-1.03,.37-4.05,1.45-5,4-.66,1.76,.3,2.53,0,5-.27,2.29-1.45,4.59-3,6-2.28,2.08-5.21,2.07-10,2-7.15-.11-7.3-1.63-11-1-5.43,.93-9.06,4.89-11,7-3.33,3.63-4.71,7.23-5,8-.69,1.87-1.65,5.22-1,14,.44,5.93,1.03,6.46,2,14,1.81,14.1,.32,16.69-1,18-1.42,1.41-3.35,2.08-6,3-4.71,1.63-5.77,.51-8,2-1.79,1.2-1.51,2.2-5,9-1.81,3.53-2.72,5.29-4,7-1.34,1.78-2.03,2.29-5,6-2.2,2.75-2.78,3.66-3,5-.39,2.41,.67,4.4,1,5,.76,1.39,2.31,3.27,7,5,4.91,1.82,9.18,1.96,12,2,13.82,.2,15.32-1.77,18,0,6.61,4.37,5.96,21.95-1,26-4.59,2.67-9.72-1.83-15,2-2.58,1.87-2.02,3.43-6,7-1.54,1.39-4.14,3.72-8,5-2.99,.99-3.22,.19-11,1-6.07,.64-7.74,1.31-9,2-2.04,1.11-3.46,2.5-5,4-1.92,1.88-2.89,2.84-3,4-.14,1.45,.82,2.38,4,6,4.57,5.2,4.97,5.99,5,7,.11,3.14-3.38,5.57-4,6-1.8,1.25-3.48,1.56-6,2-5.29,.92-6.86-.27-10,1-.57,.23-3.26,1.37-5,4-2.96,4.47,.33,7.97-2,15-.65,1.97-1.87,5.65-5,7-1.82,.79-2.59,.06-7,0-4.48-.06-7.98-.1-10,2-1.7,1.77-.43,3.06-2,6-1.71,3.2-4.02,3.19-9,7-3.26,2.5-5.45,4.17-7,7-2.29,4.18-.19,5.37-2,12-1.35,4.96-2.91,5.69-5,13-1.08,3.78-1.09,5.06-1,6,.36,3.95,2.53,4.44,4,9,.33,1.02,1.96,6.07,0,11-.52,1.3-1.34,2.53-3,5-2.29,3.41-3.09,3.83-4,6-.59,1.4-1.51,3.59-1,6,.68,3.25,3.58,5.12,5,6,5.73,3.57,11.9,3,16,3,7.87,0,14.25,2.67,27,8,13.19,5.51,19.78,8.26,24,15,6.41,10.24,3.86,22.01,3,26-.95,4.37-1.99,9.19-6,12-2.7,1.89-4.17,1.06-9,4-1.95,1.19-4.67,2.88-7,6-2.27,3.05-1.43,3.78-3,5-2.67,2.06-5.33,.12-13,1-4.86,.56-5.7,1.56-6,2-1.11,1.64,.02,3.19-1,7-.54,2-.88,3.27-2,4-1.93,1.25-3.72-.71-7,0-2.22,.48-2.56,1.63-5,3-2.92,1.65-5.62,1.8-9,2-8.3,.48-13.47-2.26-15,0-.61,.9-.06,1.74-1,3-1.12,1.5-2.97,1.77-4,2-3.94,.88-7.56,3.81-9,6-2.93,4.45-.23,11,1,14,1.44,3.5,3.28,5.74,6,9,5.47,6.55,7.05,6.04,10,10,3.12,4.19,1.9,5.51,6,19,2.18,7.17,2.47,6.62,5,15,2.63,8.69,3.94,13.04,4,16,.12,6.02-1.48,9.32,1,13,1.58,2.35,3.22,2.48,4,5,1.14,3.7-1.44,6.51,0,8,1.39,1.43,4.32-.63,6,1,1.02,.99,.37,2.18,1,5,.41,1.83,1.06,4.8,3,6,2.65,1.65,5.13-1.59,11-1,1.44,.15,3.81,.38,6,2,2.39,1.77,2.42,3.59,5,7,1.78,2.35,3.5,3.76,5,5,2.29,1.88,4.78,3.31,12,6,8.82,3.28,12.13,3.76,14.65,5.19,.67,.04,1.33,.07,2,.11,.91-1.29,2.46-2.06,4.17-2.29,4.91-.65,9.14-3.32,13.1-6.11,3.29-2.32,6.48,.19,7.13,3.29Z"/>
</svg>