<?xml version="1.0" encoding="UTF-8"?>
<svg id="Calque_1" data-name="Calque 1" xmlns="http://www.w3.org/2000/svg" viewBox="0 0 2420 450">
  <defs>
    <style>
      .cls-1 {
        fill: #002930;
      }
    </style>
  </defs>
  <path class="cls-1" d="M2420,281s-18.08,1.33-21.5,2c-.63,.12-1.42,.35-2,1-1.01,1.13-.34,2.33-1,3-1.14,1.16-4.15-1.48-9-2-1.34-.15-4.35-.47-7,1-2.63,1.46-2.34,3.28-5,7-4,5.61-6.37,3.91-11,10-1.19,1.57-2.42,3.5-5,5-.88,.51-3.31,1.92-5,1-1.03-.56-.88-1.48-2-2-1.35-.63-3.39-.13-4,1-.6,1.12,.56,2.13,0,3-.84,1.29-3.88-.25-5,1-.95,1.05,.53,2.93,1,6,.45,2.92-.37,5.28-2,10-1.46,4.22-1.8,3.56-4,9-2.3,5.71-2.48,7.82-5,10-.82,.71-2.82,2.44-5,2-1.81-.37-2.84-2.04-4-4-1.62-2.72-1.21-3.58-3-8-1.09-2.7-2.04-4.35-3-6-1.19-2.05-1.97-3.07-3-4-.66-.6-1.58-1.41-3-2-1.72-.71-2.27-.29-4-1-.59-.24-1.92-.78-3-2-.68-.77-1.08-1.6-2-5-.98-3.64-.78-3.62-1-4-3.18-5.41-34.85,6.99-41,1-.39-.38-2.11-2.23-5-4,0,0-2-1.23-4-2-7.38-2.85-12.67,1.37-18-2-.56-.36-1.97-1.27-3-3-3.31-5.57,1.91-11.91-1-15-1.79-1.9-4.49-.29-7-3-1.07-1.15-1.48-2.41-2-4-1.05-3.2-.57-4.64-1-7-.59-3.26-2.7-7.09-6-9-2.37-1.37-4.91-1.25-10-1-5.79,.28-8.69,.42-10,2-3.21,3.86,2.64,10.95-1,15-1.14,1.26-3.16,2.19-5,2-1.7-.17-2.07-1.18-4-2-3.08-1.31-6.19-.48-8,0-1.45,.38-4.67,1.24-7,4-2.28,2.7-1.31,4.36-4,7-.94,.93-.93,.59-4,3-2.98,2.34-3.04,2.69-4,3-2.24,.72-5.32-.08-7-2-1.43-1.63-1.62-3.81-2-8-.19-2.08-.1-3.22-1-4-1.11-.97-2.33-.18-4-1-1.42-.7-1.58-1.78-3-4-2.67-4.17-4.05-3.39-5-6-1.2-3.29,.5-5.91-1-7-.67-.49-1.41-.26-3,0-3.42,.56-7.2,1.17-10,0-2.95-1.24-2.49-3.51-5-4-2.8-.55-5.62,1.84-7,3-2.73,2.3-2.52,3.75-5,5-1.66,.83-3.19,.91-5,1-2.67,.13-4.66,.23-6-1-1.66-1.53-.46-3.41-2-5-1.8-1.86-5.93-1.88-8,0-1.02,.93-.75,1.6-2,7-1.33,5.78-1.69,5.23-2,8-.22,2.02-.14,3.26-1,5-.41,.83-1.42,2.86-3,3-1.38,.12-2.53-1.25-4-3-1.43-1.7-1.46-2.39-3-4-1.01-1.05-2.21-2.31-3-2-.6,.24-.48,1.19-1,4-.34,1.84-.53,2.89-1,4-.9,2.16-2.37,3.46-3,4-3.12,2.7-6.8,2.94-8,3-1.17,.06-3.12-.29-7-1-2.64-.48-3.73-.78-6-1-2.57-.25-3.86-.38-5,0-2.27,.76-2.13,2.14-5,4-1.23,.8-3.3,2.13-6,2-2.72-.13-4.62-1.68-5-2-2.57-2.18-1.85-4.33-4-7-1.57-1.95-2.5-1.48-7-4-4.97-2.79-4.83-3.93-10-7-5.13-3.05-4.88-1.7-8-4-4.05-2.98-6.94-7.08-9-10-1.74-2.47-1.4-2.34-2-3-5.45-5.95-16.74,2.27-27-1-5.99-1.91-10.33-9.94-19-26-6.09-11.28-9.13-16.92-10-23-.73-5.15-.65-11.31-2-25-.21-2.1-.54-5.23-2-9-1.95-5.02-3.45-4.86-5-9-2.23-5.94,.31-7.75-2-14-1.52-4.11-3.89-6.78-5-8-3.55-3.91-7.25-5.58-10-7,0,0-8.75-4.51-17-12-13.59-12.34-9.34-28.87-18-31-6.49-1.6-11.99,6.92-17,4-2.54-1.48-1.68-4-5-10-2-3.63-3.38-4.63-9-11-9.97-11.31-8.4-11.29-11-13-5-3.3-12-2.53-26-1-12.2,1.33-18.43,2.08-25,6-2.92,1.74-5.92,4.07-11,8-8.77,6.79-8.77,7.8-12,9-4.52,1.67-9.01,1.12-18,0-8.49-1.05-10.26-2.36-14-1-4.59,1.67-7.33,5.6-9,8-3.71,5.33-2.34,7.31-6,12-1.25,1.6-4.15,5.32-9,7-5.14,1.78-7.05-.61-13,1-4.74,1.29-7.85,3.98-9,5-2.77,2.46-5.59,6.22-8,15-2.9,10.57-1.11,13.44-3,27-1.73,12.45-3.36,10.91-4,20-.91,13.07,2.52,15.26,0,25-1.97,7.61-5.9,13.29-8,16-3.62,4.66-7.22,7.42-8,8-7.9,5.94-16.18,7.39-26,9-13.01,2.13-12.26-.12-17,2-10.91,4.88-8.74,14.07-20,19-3.53,1.55-4.28,.88-17,5-3.97,1.29-6.32,2.14-9,4-4.19,2.91-4.2,4.81-8,8-5.04,4.22-10.48,5.46-13,6-4.82,1.04-10.59,2.28-15-1-3.82-2.84-4.75-7.68-5-9-1.19-6.18,2.04-8.57,0-12-1.64-2.75-4.02-1.71-8-6-1.48-1.59-3.42-3.73-3-6,.25-1.35,1.1-1.48,3-4,1.56-2.08,2.99-3.98,3-6,.01-2.18-1.61-3.68-4-6-3.05-2.95-5.94-6.06-9-9-4.64-4.46-8.24-7.92-10-13-2.19-6.33,.9-8.14-1-17-.67-3.1-1.66-7.73-5-12-3.96-5.06-6.94-4.18-17-11-4.76-3.23-7.78-5.28-11-9-5.07-5.86-4.59-8.88-9-14-.79-.91-5.62-6.4-13-9-8.71-3.07-12.45,.87-33,1-8.21,.05-10.69-.56-13-2-5.08-3.17-4.97-7.62-11-11-1.73-.97-5.97-3.35-10-2-3.87,1.3-3.66,4.74-9,12-3.9,5.29-4.53,4.17-11,12-5.08,6.15-4.81,7-7,8-5.83,2.67-10.47-2.11-15,1-2.35,1.61-1.29,3.03-5,7-2.21,2.37-4.72,5.05-8,5-2.4-.03-4.11-1.51-7-4-2.24-1.94-3.97-3.43-5-6-1.3-3.25-.2-5.05-2-7-1.3-1.41-3.12-1.81-4-2-3.24-.71-4.34,.84-6,0-1.32-.67-1.28-1.99-3-8-1.46-5.13-2.05-6.14-3-7-1.94-1.76-4.38-1.96-5-2-1.98-.14-2.84,.51-7,2-4.26,1.53-6.43,2.29-8,2-2.73-.51-2.65-2.29-6-4-4.94-2.53-10.14-1.23-11-1-1.23,.33-5.3,1.4-8,5-3.4,4.53-.68,7.81-4,14-1.05,1.95-2.7,3.64-6,7-7.13,7.27-8.11,5.9-10,9-4.15,6.79,1.52,11.77-3,21-1.24,2.53-2.03,2.9-4,7-1.87,3.89-1.89,5.08-4,10-2.16,5.03-3.24,7.54-5,9-2.76,2.28-5.92,2.6-10,3-4.53,.45-7.84,.78-11-1-4.68-2.63-6.06-8.19-7-12-.59-2.4-.44-3-1-16-.31-7.04-.44-8.96-2-11-.5-.66-1.12-1.29-8-5-6.87-3.7-7.86-3.94-9-4-3.26-.18-7.78,1.07-9,4-1.1,2.63,1.37,4.46,0,7-1.09,2.01-3.84,3.06-6,3-2.13-.06-2.35-1.17-4-1-2.23,.22-2.5,2.31-6,5-2.07,1.59-3.68,2.84-6,3-1.71,.12-2.71-.43-5,0,0,0-1.6,.3-3,1-4.82,2.42-3.31,10.76-8,14-1.26,.87-2.72,1.2-7,1-9.05-.43-15.97-2.53-21-4-19.51-5.71-20.4-4.86-25-8-5.42-3.7-5.63-5.88-10-7-7.37-1.89-11.53,3.07-17,0-.34-.19-2.56-2.46-7-7-4.69-4.8-4.68-4.82-5-5-5.98-3.42-11.68,2.2-16-1-1.36-1.01-2.24-3.67-4-9-1.57-4.75-1.34-6.04-3-8-2.36-2.78-5.83-3.74-7-4-3.89-.88-5.61,.57-8-1-1.84-1.21-1.23-2.34-3-4-3.02-2.84-6.23-.9-11-3-2.64-1.16-2.39-2.08-7-6-2.14-1.82-5.81-4.95-10-7-4.42-2.17-8.61-2.44-17-3-7.74-.51-11.67-.73-15,1-3.98,2.07-3.82,4.28-8,6-.79,.32-6.92,2.74-12,0-5.11-2.76-3.59-7.72-9-11-2.93-1.78-5.92-1.86-11-2-7.9-.22-9.97,1.88-13,0-1.93-1.2-2.95-3.8-5-9-2.26-5.74-1.68-6.55-3-9-2.76-5.11-8.24-7.01-14-9-4.93-1.71-12.67-4.39-20-1-2.14,.99-4.87,2.25-6,5-1.2,2.92,.39,5.1-1,10-.54,1.91-.89,3.12-2,4-2.06,1.63-4.79,.63-9,0-3.92-.59-8.88-1.34-13,0-6.68,2.17-9.73,9.35-10,10-4.71,11.52,5.22,23.27,0,28-1.65,1.49-4.4,1.92-5,2-4.3,.58-5.82-1.96-9-1-2.99,.9-2.86,3.5-6,4-2.17,.35-4.15-.6-5-1-2.1-1-2.19-1.89-4-3-2.14-1.31-6.03-2.53-8-1-1.74,1.35-.37,3.58-2,8-.76,2.06-1.73,4.7-4,6-2.63,1.51-4.57-.19-13-1-3.81-.36-5.72-.55-7,0-3.93,1.68-3.28,5.67-8,11-.57,.65-3.38,3.75-8,6-2.97,1.45-7.89,3.84-13,2-.93-.34-4.63-1.67-6-5-1.62-3.94,1.61-6.85,0-9-2.09-2.8-8.15,1.3-12-2-2.55-2.18-1.45-5.31-5-8-1.66-1.26-2.43-.97-4-2-2.47-1.61-4.17-4.67-5-10-2.33-15.01,5.44-27.74,0-38-2.16-4.08-5.78-6.05-13-10-8.96-4.9-17.19-6.5-29-8-13.99-1.78-20.98-1.88-40-3-28.87-1.7-34.57-2.74-42,2-1.52,.97-10.19,6.7-13,17-1.76,6.45-.17,12.63,3,25,2.16,8.41,3.24,12.61,6,17,3.07,4.87,5.74,6.67,7,12,.51,2.17,1.53,6.81-1,11-1.98,3.28-5.14,4.64-6,5-4.47,1.86-6.13-.4-12,1-4.15,.99-4.2,2.33-8,3-3.65,.64-6.7-.05-10-1-10.95-3.17-12.28-5.69-18-7-8.87-2.03-20.89,.56-24,7-2.15,4.46,1.3,7.99-2,14-.58,1.05-2.4,4.26-6,6-1.9,.91-2.14,.39-3,1-4.32,3.09,2.97,15.84-1,27-.79,2.21-1.8,3.78-3,5-2.73,2.79-6.17,3.59-8,4-5.66,1.25-7.36-.81-10,1-1.47,1-.69,1.46-4,7-1.71,2.86-3.29,5.04-5,7-1.44,1.65-2.16,2.48-3,3-.99,.61-2.14,1.05-8,2-3.22,.52-3.59,.5-4,1-1.22,1.46,.43,3.45,0,8-.14,1.46-.25,2.67-1,4-1.12,2-3.42,3.83-6,4-3.55,.23-6.13-2.8-8-5-3.31-3.89-2.44-5.65-5-9-3.89-5.09-10.1-6.55-12-7-6.21-1.46-7.72,.9-15-1-1.47-.38-7.67-2-8-5-.18-1.6,1.43-2.47,1-4-.34-1.21-1.65-1.77-5-3-7.23-2.67-8.24-2.71-9-4-.96-1.63,.12-2.43-1-6-.62-1.98-.99-3.13-2-4-2.22-1.9-4.56,.17-9-1-1.93-.51-3.62-1.67-7-4-2.46-1.69-4.14-3.2-5-4-1.18-1.1-1.63-1.65-2-2-4.36-4.1-14.34,3.79-22,0-3.04-1.5-1.8-2.92-7-7-3.08-2.42-4.54-2.73-11-6-11.43-5.79-11.89-7.37-15-7-5.59,.66-7.77,6.19-11,5-2.67-.98-1.66-4.94-5-7-3.37-2.08-6.17,.84-10-1-3.78-1.82-2.58-5.4-6-8-4.48-3.41-11.58-1.09-21,2-5.52,1.81-8.72,2.9-12,6-1.55,1.47-5.73,5.42-6,11-.13,2.69,.91,5.13,3,10,2.09,4.87,3.44,6.21,4,10,.35,2.37,.81,5.45-1,7-1.96,1.68-5.9,.98-8-1-2.08-1.96-1.43-4.32-3-5-1.9-.82-5.06,1.66-7,4-4.79,5.78-1.71,10.11-5,18-2.97,7.12-6.07,5.02-12,15-4.17,7.02-4.23,10.75-8,12-.77,.25-4.19,.17-11,0-3.33-.08-4.99-.15-6,1-1.62,1.84,.41,4.52-1,6-1.76,1.85-5.64-1.52-11,0-1.35,.38-3.62,1.03-5,3-2.94,4.21,1.13,10.29-2,13-.85,.74-1.16,.29-2,1-3.5,2.96,1.72,10.75-1,14-2.82,3.37-10.4-2.69-17,1-3.9,2.18-5.27,6.53-7,12-.59,1.87-2.19,7.36-2,19,.25,15.2,3.19,18.17,0,23-2.44,3.7-6.17,5.02-7,10-.46,2.79,.35,4.5-1,6-2.06,2.28-5.38-.1-8,2-1.56,1.25-.79,2.4-3,11-.73,2.84-1.24,4.35-2,6-.42,.91-1.55,3.34-3,5-3.16,3.61-6.55,2.04-14,5-4.32,1.72-8.24,3.27-10,7-1.14,2.41-.23,3.32-2,8-.66,1.74-1.44,3.16-3,6-1.6,2.91-2.17,3.56-3,4,0,0-5.5,0-5.5,0V0H2420V281Z"/>
</svg>