<?xml version="1.0" encoding="UTF-8"?>
<svg id="Calque_1" data-name="Calque 1" xmlns="http://www.w3.org/2000/svg" viewBox="0 0 1920 1056.5">
  <path d="M0,1029.5c56.32-48.15,76.28-97.1,84.5-123,16.39-51.63,11.72-98.52,5-166-6.67-66.99-17-120-17-120-12.26-62.92-22.8-89.4-7-109,18.15-22.51,48.47-7.92,69-34,19.98-25.38,10.38-63.5,9-69-9.61-38.17-35.84-42.66-47-76-11.4-34.04,1.73-71.81,14-91,44.95-70.33,185.31-58.69,266-52,122.87,10.19,175.39,42.77,251,8,34.28-15.76,28.21-24.63,70-45,15.4-7.5,115.65-56.37,211-23,73.12,25.59,60.95,70.71,134,98,32.28,12.06,46.72,7.76,193-5,181.51-15.83,178.48-10.87,211-21,85.87-26.74,104.8-60.61,171-58,14.85,.58,72.29,3.65,117,45,87.53,80.95,59.76,247.13,18,262-7.6,2.71-13.48-.38-23,5-21.35,12.07-29.09,48.74-23,77,6.83,31.68,27.23,35.19,68,83,28.22,33.1,49.63,58.2,59,94,6.68,25.5,1.54,56.68-9,118-15.08,87.7-26.05,101.87-14,129,9.29,20.93,25.96,35.32,58,63,28.86,24.93,51.5,37,51.5,37V0H0V1029.5Z"/>
</svg>