<?xml version="1.0" encoding="UTF-8"?>
<svg id="layer-1" xmlns="http://www.w3.org/2000/svg" viewBox="0 0 900 1600">
  <defs>
    <style>
      .cls-1 {
        fill: #002930;
      }
    </style>
  </defs>
  <path class="cls-1" d="M87,1295.98c-1.36,2.83-.05,4.17,1,10.59,.79,4.79,1.29,7.89,.94,10.5-10.63,1.79-19.95,6.49-27.27,13.11-9.56,8.66-15.95,18.95-22.23,29.1-5.76,9.31-11.16,19.02-20.51,26.63-5.72,4.66-12.33,9.29-18.94,14.07V0H438V4.16c-.44,.62-1.09,1.06-4,2.27-2.84,1.18-4.26,1.77-6,2.27-4.68,1.34-5.59,.65-8,1.51-3.73,1.33-5.28,4.3-7,7.57-2.96,5.64-1.39,8.2-5,10.59-1.66,1.1-4.09,1.95-5,2.27-1.65,.58-3.16,.96-6,1.51-8.6,1.67-9.75,1.09-11,2.27-2.1,1.99,.28,4.5-2,6.05-1.5,1.02-3.21,.41-6,.76-4.98,.63-6.3,3.45-10,5.3-4.83,2.41-7.8,.19-23,0-11.64-.15-17.13,1.07-19,1.51-5.47,1.31-9.82,2.35-12,5.3-3.69,5,2.37,10.73-1,12.87-3.25,2.06-11.04-1.89-14,.76-.71,.64-.26,.87-1,1.51-2.71,2.37-8.79-.71-13,1.51-1.97,1.04-2.62,2.77-3,3.78-1.52,4.05,1.85,6.99,0,8.32-1.48,1.07-4.16-.47-6,.76-1.15,.77-1.08,2.02-1,4.54,.17,5.16,.25,7.74,0,8.32-1.25,2.85-4.98,2.9-12,6.05-9.98,4.49-7.88,6.84-15,9.08-7.89,2.49-12.22,.16-18,3.78-2.34,1.47-4.82,3.86-4,5.3,.68,1.19,3.04,.7,5,2.27,1.98,1.59,2.68,4.57,1,6.05-1.55,1.37-4.63,1.02-7,.76-3.79-.42-5.13-1.45-10-3.03-4.87-1.58-7.31-2.37-10-2.27-5.58,.2-9.53,3.37-11,4.54-3.1,2.48-4.19,4.91-6,9.08-3.09,7.13-5.41,12.5-2,15.89,2.6,2.59,6.18,1.68,8,4.54,1.84,2.9-1.08,5.02,1,7.57,2.06,2.53,6.02,1.76,7,3.78,1.19,2.45-4.34,4.1-5,8.32-.37,2.35,1.21,2.7,7,11.35,3.27,4.89,3.58,5.99,6,8.32,4.08,3.93,5.5,3,7,5.3,3.79,5.79-4.1,13.35,0,16.65,.35,.28,.9,.62,2,1.51,.8,.65,2.31,1.93,4,3.78,2.33,2.56,3.49,3.83,4,5.3,1.17,3.36-.9,5.13,1,6.81,.87,.77,2.02,1.04,4,1.51,3.57,.85,4.37,.03,6,.76,1.29,.58,1.33,1.34,4,6.81,1.23,2.53,1.79,3.53,3,3.78,1.53,.33,2.4-.89,4-.76,3,.25,4.62,4.94,5,6.05,1.9,5.51-.46,6.65,1,11.35,.45,1.44,1.91,6.14,7,9.08,3.35,1.94,5.11,1.28,9,3.78,2.2,1.42,5.23,3.37,5,6.05-.17,1.95-2,3.69-4,4.54-1.33,.56-2.54,.65-4,.76-4.55,.33-6.54-.92-8,0-.5,.31-.48,.59-1,3.03-.95,4.44-1.39,5.31-2,6.05-.52,.64-1.35,1.18-3,2.27-1.96,1.29-4.14,2.49-7,3.78-5.54,2.51-6,1.92-7,3.03-1.81,2,.25,3.28-1,7.57-.41,1.39-1.21,3.99-4,6.05-1.22,.9-2.79,1.68-5,2.27-11.16,3-23.91-2.51-27,.76-.61,.65-.09,.84-1,2.27-1.74,2.73-4.95,4.1-6,4.54-6.01,2.5-9.54-.12-14,1.51-6.44,2.35-9.03,11.45-7,18.16,1.31,4.33,3.83,5.34,7,13.62,.96,2.5,1.64,4.81,1,7.57-.67,2.87-2.01,2.92-3,6.05-1.4,4.44,.86,5.7-1,9.08-.36,.65-1.72,3.04-5,4.54-4.19,1.92-8.83,1.14-11,.76-5.33-.95-7.13-2.97-12-5.3-4.39-2.09-8.59-2.91-17-4.54-12.37-2.4-18.55-3.6-25-2.27-10.3,2.13-16.03,8.69-17,9.84-4.74,5.62-3.7,9.93-2,31.78,1.12,14.4,1.22,19.68,3,30.27,1.5,8.94,3.1,15.16,8,21.95,3.95,5.47,5.92,8.2,10,9.84,10.26,4.12,22.99-1.76,38,0,5.33,.63,8.39,1.92,10,3.78,1.03,1.19,.74,1.77,2,3.03,2.69,2.69,5.82,1.86,8,3.78,3.3,2.91-.8,7.5,2,9.08,2.15,1.22,5.06-1.23,9,0,3.33,1.03,4.66,3.84,5,4.54,1.84,3.87-.55,7.59-2,9.84-2.25,3.5-5.35,5.62-6,6.05-5.33,3.57-9.32,3.08-11,6.05-.55,.97-.36,2.41,0,5.3,.81,6.38,2.51,7.85,1,9.84-1.3,1.71-3.94,2.45-6,3.03-4.42,1.23-6.65,.2-8,1.51-1.53,1.49-.31,4.43,1,6.05,1.11,1.37,2,1.44,3,3.03,.4,.64,1.35,2.14,1,3.78-.5,2.37-3.1,2.28-4,4.54-.96,2.41,1.58,3.55,1,6.81-.08,.46-.51,2.54-2,3.78-4.73,3.95-16.48-3.57-28,0-.65,.2-7.83,2.51-10,7.57-1.34,3.12-.59,6.87,0,9.84,.63,3.18,1.63,5.25,0,6.81-.88,.84-2.09,1.1-4,1.51-4.9,1.05-7.08-.15-10,.76-2.75,.86-4.01,2.92-5,4.54-3.39,5.55-.71,11.4,1,15.14,1.99,4.36,3.89,8.51,9,10.59,2.45,1,3.26,.56,9,2.27,5.2,1.55,7.8,2.33,9,3.78,1.88,2.29-.22,3.86,0,9.84,.14,3.85,.22,6.1,2,8.32,3.28,4.1,8.24,2.95,11,6.81,2.74,3.85,.32,8.49,0,9.08-1.72,3.16-3.93,3.05-6,6.05-1.73,2.52-1.51,5.5-1,11.35,.56,6.35,.83,9.52,3,12.87,2.05,3.17,5.18,5.95,7,7.57,3.92,3.49,4.84,3.3,6,5.3,2.1,3.61,.16,6.04,3,8.32,1.66,1.34,2.79,.88,4,2.27,1.57,1.81,.12,3.11,1,6.05,.26,.88,1.22,3.51,4,5.3,1.96,1.26,3.25,1.08,8,2.27,5.33,1.33,7.99,2,9,3.03,3.2,3.27-2.42,7.58,1,12.11,.18,.24,.2,.23,5,3.78,4.54,3.36,6.81,5.04,7,5.3,3.07,4.14-1.89,7.29,0,12.87,1.12,3.31,3.3,3.47,7,7.57,3.14,3.48,2.29,4.15,8,18.92,1.47,3.81,3.57,9.04,4,15.89,.2,3.24-.13,4.34-1,5.3-3.24,3.55-11.58,2.41-14,6.05-.7,1.06-1,2.27-1,2.27-.43,1.73,.12,2.49,0,3.78-.16,1.75-1.41,2.98-3,4.54-2.69,2.65-4.78,2.85-5,4.54-.17,1.25,.94,1.42,1,3.03,.06,1.64-.99,3.72-3,4.54-2.54,1.04-4.37-.83-7,0-2.93,.92-4.18,4.34-4,6.81,.06,.86,.3,1.61,4,6.81,3.71,5.2,4.34,5.68,5,6.05,2.04,1.18,3.96,1.28,11,1.51,13,.43,13.6,.31,16,.76,3.81,.71,9.37,1.75,12,5.3,1.78,2.39,1.45,4.89,1,8.32-.4,3.09-.72,5.48-3,7.57-1.46,1.33-3.97,2.15-9,3.78-4.92,1.6-6.11,1.61-10,3.03-4.1,1.49-4.47,2.09-7,3.03-9.23,3.42-14.21-.87-21,2.27-3.1,1.43-1.73,2.17-9,7.57-3.36,2.5-5.05,3.75-7,4.54-6.19,2.51-9.47,.45-14,3.03-3.59,2.04-4.67,5.12-5,6.05-.23,.65-1.53,4.58,1,8.32,1.71,2.54,3.49,2.48,4,4.54,.29,1.19-.47,2.83-2,6.05-1.49,3.15-2.14,3.8-2,5.3,.04,.47,.24,2.32,2,3.78,.86,.72,1.87,1.16,7,2.27,6.01,1.3,7.33,1.27,8,2.27,.84,1.25-.71,2.09,0,4.54,.19,.66,.59,2.04,2,3.03,1.95,1.36,3.75,.53,7,1.51,2.57,.78,4.06,2.08,6,3.78,2.49,2.18,3.97,3.48,4,5.3,.05,2.48-2.63,4.38-5,6.05-3.97,2.81-5.39,2-7,3.78-3.11,3.43,1.67,6.94-1,11.35-1,1.65-1.85,1.46-8,5.3-7.83,4.89-6.71,5.38-12,8.32-7.26,4.04-10.7,3.88-12,6.81-1.35,3.05,1.03,6.26,2,7.57,3.38,4.57,7.83,4.48,11,8.32,1.44,1.75,2.05,3.63,2,9.84-.13,15.55-4.07,18.38-1,24.97,2.6,5.58,8.09,9.24,9,9.84,5.12,3.34,8.14,2.98,14,6.81,3.72,2.43,5.77,4.72,9,8.32,6.82,7.61,5.94,9.87,11,12.87,4.27,2.53,8.9,3.28,12,3.78,8.86,1.44,10.67-.9,17,.76,5.08,1.33,8.54,4.05,13,7.57,2.94,2.32,6.05,4.5,9,6.81,2.32,1.81,3.82,3.04,6,3.03,2.02-.01,3.92-1.09,6-2.27,2.52-1.44,2.65-2.08,4-2.27,2.27-.31,4.41,1.15,6,2.27,4.29,3.02,3.25,4.82,6,6.05,3.43,1.54,5.82-.9,12,0,1.32,.19,6.16,.9,9,3.78,3.28,3.34,2.04,7.7,1,11.35-.54,1.9-1.78,6.03-6,9.84-3.19,2.88-5.09,2.89-8,6.05-1.86,2.03-2.71,3.81-4,6.81-4.12,9.63-3.45,10.19-5,12.87-4.93,8.52-14.12,6.88-19,15.14-2.12,3.58,.13,3.02-2,12.87-1.61,7.43-3.06,13.7-9,19.68-.58,.59-3.34,3.31-8,6.05-2.71,1.59-8.39,4.56-16,6.05-9.74,1.91-11.93-.69-25,0-9.09,.48-7.55,1.72-20,3.03-13.56,1.43-16.43,.07-27,2.27-8.78,1.83-12.54,3.95-15,6.05-1.02,.87-3.71,3.22-5,6.81-1.61,4.5,.78,5.95-1,9.84-1.68,3.67-5.4,5.87-7,6.81-4.69,2.77-6.67,1.73-12,4.54-2.4,1.27-6.33,3.34-8,6.81Z"/>
</svg>