<?xml version="1.0" encoding="UTF-8"?>
<svg id="Calque_1" data-name="Calque 1" xmlns="http://www.w3.org/2000/svg" viewBox="0 0 438 2420">
  <defs>
    <style>
      .cls-1 {
        fill: #002930;
      }
    </style>
  </defs>
  <path class="cls-1" d="M351,1712.5c1.36,3.74,.05,5.51-1,14-.79,6.32-1.29,10.42-.94,13.87,10.63,2.37,19.95,8.58,27.27,17.33,9.56,11.44,15.95,25.05,22.23,38.46,5.76,12.3,11.16,25.13,20.51,35.19,5.72,6.16,12.33,12.27,18.94,18.6V0H0V5.5c.44,.83,1.09,1.4,4,3,2.84,1.56,4.26,2.34,6,3,4.68,1.77,5.59,.86,8,2,3.73,1.76,5.28,5.68,7,10,2.96,7.45,1.39,10.84,5,14,1.66,1.45,4.09,2.58,5,3,1.65,.76,3.16,1.27,6,2,8.6,2.21,9.75,1.44,11,3,2.1,2.62-.28,5.94,2,8,1.5,1.35,3.21,.54,6,1,4.98,.83,6.3,4.56,10,7,4.83,3.19,7.8,.25,23,0,11.64-.19,17.13,1.41,19,2,5.47,1.73,9.82,3.1,12,7,3.69,6.6-2.37,14.18,1,17,3.25,2.72,11.04-2.5,14,1,.71,.84,.26,1.15,1,2,2.71,3.13,8.79-.94,13,2,1.97,1.38,2.62,3.65,3,5,1.52,5.36-1.85,9.24,0,11,1.48,1.41,4.16-.62,6,1,1.15,1.01,1.08,2.67,1,6-.17,6.81-.25,10.23,0,11,1.25,3.77,4.98,3.83,12,8,9.98,5.93,7.88,9.03,15,12,7.89,3.29,12.22,.21,18,5,2.34,1.94,4.82,5.1,4,7-.68,1.57-3.04,.92-5,3-1.98,2.1-2.68,6.04-1,8,1.55,1.81,4.63,1.35,7,1,3.79-.56,5.13-1.91,10-4,4.87-2.09,7.31-3.13,10-3,5.58,.27,9.53,4.45,11,6,3.1,3.28,4.19,6.48,6,12,3.09,9.42,5.41,16.52,2,21-2.6,3.42-6.18,2.22-8,6-1.84,3.83,1.08,6.63-1,10-2.06,3.34-6.02,2.33-7,5-1.19,3.23,4.34,5.41,5,11,.37,3.11-1.21,3.57-7,15-3.27,6.46-3.58,7.92-6,11-4.08,5.2-5.5,3.96-7,7-3.79,7.66,4.1,17.64,0,22-.35,.37-.9,.82-2,2-.8,.86-2.31,2.54-4,5-2.33,3.38-3.49,5.07-4,7-1.17,4.44,.9,6.78-1,9-.87,1.01-2.02,1.38-4,2-3.57,1.12-4.37,.04-6,1-1.29,.76-1.33,1.77-4,9-1.23,3.35-1.79,4.66-3,5-1.53,.43-2.4-1.18-4-1-3,.33-4.62,6.53-5,8-1.9,7.28,.46,8.79-1,15-.45,1.9-1.91,8.11-7,12-3.35,2.56-5.11,1.69-9,5-2.2,1.87-5.23,4.45-5,8,.17,2.58,2,4.88,4,6,1.33,.75,2.54,.86,4,1,4.55,.43,6.54-1.22,8,0,.5,.41,.48,.78,1,4,.95,5.86,1.39,7.01,2,8,.52,.84,1.35,1.56,3,3,1.96,1.71,4.14,3.29,7,5,5.54,3.31,6,2.53,7,4,1.81,2.64-.25,4.34,1,10,.41,1.83,1.21,5.27,4,8,1.22,1.2,2.79,2.21,5,3,11.16,3.97,23.91-3.32,27,1,.61,.86,.09,1.1,1,3,1.74,3.6,4.95,5.42,6,6,6.01,3.3,9.54-.15,14,2,6.44,3.11,9.03,15.13,7,24-1.31,5.72-3.83,7.05-7,18-.96,3.3-1.64,6.35-1,10,.67,3.8,2.01,3.85,3,8,1.4,5.87-.86,7.53,1,12,.36,.86,1.72,4.02,5,6,4.19,2.53,8.83,1.51,11,1,5.33-1.26,7.13-3.93,12-7,4.39-2.76,8.59-3.84,17-6,12.37-3.17,18.55-4.76,25-3,10.3,2.81,16.03,11.48,17,13,4.74,7.43,3.7,13.13,2,42-1.12,19.02-1.22,26.01-3,40-1.5,11.81-3.1,20.04-8,29-3.95,7.22-5.92,10.84-10,13-10.26,5.44-22.99-2.33-38,0-5.33,.83-8.39,2.53-10,5-1.03,1.57-.74,2.34-2,4-2.69,3.55-5.82,2.45-8,5-3.3,3.85,.8,9.91-2,12-2.15,1.61-5.06-1.62-9,0-3.33,1.37-4.66,5.07-5,6-1.84,5.11,.55,10.03,2,13,2.25,4.62,5.35,7.43,6,8,5.33,4.72,9.32,4.07,11,8,.55,1.28,.36,3.19,0,7-.81,8.43-2.51,10.37-1,13,1.3,2.27,3.94,3.24,6,4,4.42,1.63,6.65,.26,8,2,1.53,1.97,.31,5.86-1,8-1.11,1.81-2,1.9-3,4-.4,.85-1.35,2.83-1,5,.5,3.14,3.1,3.01,4,6,.96,3.18-1.58,4.7-1,9,.08,.6,.51,3.35,2,5,4.73,5.22,16.48-4.71,28,0,.65,.27,7.83,3.32,10,10,1.34,4.12,.59,9.08,0,13-.63,4.21-1.63,6.94,0,9,.88,1.11,2.09,1.46,4,2,4.9,1.39,7.08-.2,10,1,2.75,1.13,4.01,3.86,5,6,3.39,7.33,.71,15.07-1,20-1.99,5.76-3.89,11.24-9,14-2.45,1.32-3.26,.74-9,3-5.2,2.05-7.8,3.07-9,5-1.88,3.03,.22,5.1,0,13-.14,5.08-.22,8.07-2,11-3.28,5.41-8.24,3.89-11,9-2.74,5.08-.32,11.21,0,12,1.72,4.18,3.93,4.02,6,8,1.73,3.33,1.51,7.26,1,15-.56,8.39-.83,12.58-3,17-2.05,4.19-5.18,7.86-7,10-3.92,4.61-4.84,4.36-6,7-2.1,4.77-.16,7.98-3,11-1.66,1.77-2.79,1.16-4,3-1.57,2.39-.12,4.11-1,8-.26,1.17-1.22,4.64-4,7-1.96,1.66-3.25,1.43-8,3-5.33,1.76-7.99,2.64-9,4-3.2,4.32,2.42,10.02-1,16-.18,.32-.2,.31-5,5-4.54,4.44-6.81,6.66-7,7-3.07,5.47,1.89,9.63,0,17-1.12,4.37-3.3,4.58-7,10-3.14,4.6-2.29,5.49-8,25-1.47,5.03-3.57,11.95-4,21-.2,4.28,.13,5.74,1,7,3.24,4.69,11.58,3.18,14,8,.7,1.4,1,3,1,3,.43,2.29-.12,3.29,0,5,.16,2.32,1.41,3.93,3,6,2.69,3.5,4.78,3.77,5,6,.17,1.65-.94,1.87-1,4-.06,2.16,.99,4.91,3,6,2.54,1.37,4.37-1.1,7,0,2.93,1.22,4.18,5.74,4,9-.06,1.14-.3,2.13-4,9-3.71,6.88-4.34,7.5-5,8-2.04,1.56-3.96,1.69-11,2-13,.56-13.6,.41-16,1-3.81,.94-9.37,2.32-12,7-1.78,3.16-1.45,6.47-1,11,.4,4.08,.72,7.24,3,10,1.46,1.76,3.97,2.84,9,5,4.92,2.11,6.11,2.13,10,4,4.1,1.97,4.47,2.76,7,4,9.23,4.52,14.21-1.15,21,3,3.1,1.89,1.73,2.87,9,10,3.36,3.3,5.05,4.95,7,6,6.19,3.32,9.47,.6,14,4,3.59,2.7,4.67,6.77,5,8,.23,.86,1.53,6.06-1,11-1.71,3.35-3.49,3.27-4,6-.29,1.57,.47,3.74,2,8,1.49,4.16,2.14,5.02,2,7-.04,.62-.24,3.06-2,5-.86,.95-1.87,1.54-7,3-6.01,1.72-7.33,1.68-8,3-.84,1.66,.71,2.76,0,6-.19,.88-.59,2.7-2,4-1.95,1.8-3.75,.7-7,2-2.57,1.03-4.06,2.76-6,5-2.49,2.89-3.97,4.6-4,7-.05,3.28,2.63,5.79,5,8,3.97,3.71,5.39,2.65,7,5,3.11,4.53-1.67,9.17,1,15,1,2.19,1.85,1.92,8,7,7.83,6.47,6.71,7.1,12,11,7.26,5.34,10.7,5.13,12,9,1.35,4.03-1.03,8.27-2,10-3.38,6.03-7.83,5.92-11,11-1.44,2.31-2.05,4.79-2,13,.13,20.55,4.07,24.29,1,33-2.6,7.38-8.09,12.21-9,13-5.12,4.41-8.14,3.93-14,9-3.72,3.22-5.77,6.24-9,11-6.82,10.06-5.94,13.04-11,17-4.27,3.34-8.9,4.33-12,5-8.86,1.9-10.67-1.19-17,1-5.08,1.76-8.54,5.36-13,10-2.94,3.06-6.05,5.95-9,9-2.32,2.4-3.82,4.01-6,4-2.02-.01-3.92-1.44-6-3-2.52-1.9-2.65-2.75-4-3-2.27-.42-4.41,1.52-6,3-4.29,3.98-3.25,6.36-6,8-3.43,2.04-5.82-1.19-12,0-1.32,.25-6.16,1.18-9,5-3.28,4.41-2.04,10.18-1,15,.54,2.52,1.78,7.96,6,13,3.19,3.8,5.09,3.81,8,8,1.86,2.68,2.71,5.03,4,9,4.12,12.72,3.45,13.47,5,17,4.93,11.26,14.12,9.09,19,20,2.12,4.74-.13,3.99,2,17,1.61,9.82,3.06,18.1,9,26,.58,.78,3.34,4.38,8,8,2.71,2.1,8.39,6.03,16,8,9.74,2.52,11.93-.91,25,0,9.09,.64,7.55,2.27,20,4,13.56,1.89,16.43,.1,27,3,8.78,2.41,12.54,5.23,15,8,1.02,1.15,3.71,4.26,5,9,1.61,5.95-.78,7.86,1,13,1.68,4.85,5.4,7.75,7,9,4.69,3.66,6.67,2.29,12,6,2.4,1.67,6.33,4.41,8,9Z"/>
</svg>