<?xml version="1.0" encoding="UTF-8"?>
<svg id="Calque_1" data-name="Calque 1" xmlns="http://www.w3.org/2000/svg" viewBox="0 0 2420 272.1">
  <defs>
    <style>
      .cls-1 {
        fill: #001014;
      }
    </style>
  </defs>
  <path class="cls-1" d="M2420,230s-2.34-7.56-10-13c-3.22-2.29-6.51-3.43-11-5-9.46-3.3-10.42-1.67-14-4-7.54-4.91-5.4-13.55-11-15-3.28-.85-7.21,1.3-14,5-4.34,2.37-4.64,3.21-6,3-5.7-.9-8.35-17.03-9-26-.59-8.15,.59-8.92-1-12-4.77-9.25-20.1-11.56-23-12-7.5-1.13-9.83,.35-12-2-4.12-4.46,2.18-12.14-2-20-1.21-2.28-4.14-4.19-10-8-9.41-6.13-14.11-9.19-20-10-9.27-1.28-11.1,3.47-18,1-7.52-2.69-9.08-9.67-14-9-4.16,.57-6.58,6.04-7,7-3.63,8.22,2.43,14.17-1,19-2.99,4.22-8.34,.69-15,5-8.45,5.47-6.04,15.16-12,17-5.54,1.71-8.88-6.29-23-10-4.8-1.26-10.29-2.7-13,0-4.2,4.18,2.27,14.32-2,18-2.95,2.54-7.28-1.22-10,1-4.94,4.03,7.07,18.26,2,31-3.24,8.14-9.6,5.99-15,16-5.92,10.97-2.68,21.71-7,23-3.53,1.05-6.43-5.9-11-5-2.6,.51-4.08,3.23-9,15-5.64,13.5-6.4,16.42-9,17-4.21,.94-9.1-5.15-13-10-5.61-6.98-4.83-9.29-8-13-7.19-8.44-16.98-3.29-39-10-9.15-2.79-19.5-6.09-22-14-.71-2.25-.14-5.5,1-12,1.7-9.67,3.98-14.16,4-23,.02-6.04-1.04-7.43-2-8-3.17-1.89-7.71,3.67-11,2-2.99-1.52-1.41-7.21-3-16-1.36-7.49-2.52-13.93-7-17-6.3-4.32-13.7,1.75-30-1-3.03-.51-5.29-1.14-7-3-3.57-3.87-.62-8.59-4-13-2.43-3.17-7.39-5.23-11-4-4.55,1.55-4.11,7.36-9,9-3.04,1.02-4.17-.9-8-1-9.33-.25-12.47,10.86-19,10-6.14-.81-6.58-11.09-14-12-2.73-.34-6.3,.61-8,3-3.04,4.27,1.82,10.39-1,13-2.08,1.93-6.9,.59-9,0-3.84-1.07-4.66-2.57-6-2-2.82,1.21-.02,8.2-4,12-2.09,2-5.47,2.57-8,2-3.89-.87-4.5-4.16-7-4-2.82,.18-3.16,4.44-7,8-3.58,3.32-9.79,5.65-14,4-7.79-3.05-7.96-19.38-8-23-.14-13.69,5.05-24.38,1-27-1.38-.89-2.34,.11-4-1-3.77-2.52-.64-8.84-4-13-2.59-3.2-6.1-1.51-12-4-6.85-2.88-7.7-7.5-12-11-13.13-10.68-36.89,6.56-44-2-3.76-4.53,1.15-11.46-5-22-2.22-3.8-3.89-4.67-5-5-2.42-.72-6.31,1.18-14,5-5.98,2.98-7.53,3.76-9,3-.85-.44-1.36-1.23-3-8-1.79-7.39-1.94-9.57-4-11-1.83-1.27-3.35-.7-4-2-1.03-2.06,2.36-4.37,2-7-.5-3.71-8.06-5.55-10-6-19.5-4.56-30-3-30-3-30.42,4.52-61.38,4.12-92,7-43.88,4.13-48.05,3.47-57,8-5.45,2.76-12.73,7.47-22,6-9.73-1.54-16.4-9.05-21-6-1.58,1.05-1.27,2.25-6,8-2.02,2.46-3.05,3.69-4,4-3.79,1.23-6.74-3.81-13-6-3.58-1.25-6.22-.87-13,0-28.48,3.63-28.96,2.86-32,5-8.41,5.93-6.84,13.36-14,15-6,1.38-12.76-2.54-17-5-6.35-3.68-6.28-5.9-11-7-4.68-1.09-9.5,0-14,1-4.35,.97-3.88,1.43-7,2-8.92,1.64-11.67-2.25-16,0-3.81,1.98-2.17,5.25-8,12-.76,.88-3.57,4.04-8,7-5.95,3.97-7.95,2.98-11,6-3.52,3.48-2.22,6.14-5,12-.55,1.15-5.14,10.5-14,14-2.6,1.03-3.64,.79-20,0-12.93-.62-13.37-.52-16-1-7.08-1.28-13.44-2.43-19-7-8.01-6.58-6.04-13.42-13-16-5.4-2-9,1.22-13-2-3.49-2.81-2.71-6.86-6-8-1.5-.52-3.69,.31-8,2-6.18,2.41-8.21,3.99-10,3-1.26-.69-1.56-2.18-2-4,0,0-.71-2.94-4-13-2-6.11-7.78-12.1-14-14-8.14-2.48-12.85,3.31-19,0-4.54-2.45-5.31-7.41-7-11-5.98-12.71-26.83-15.42-41-17,0,0-75.24-8.38-144,6-5.62,1.18-9.76,2.52-13,6-4.02,4.32-3.19,8.2-8,12-3.62,2.86-7.85,3.62-10,4-7.02,1.25-10.01-1.09-12,1-2.83,2.97,1.79,9.22-1,12-2.67,2.66-8.4-1.62-11,1-2.31,2.33,1.17,6.76-1,15-.93,3.54-2.06,4.56-3,5-2.34,1.09-4.49-1.03-6,0-1.81,1.24-.79,5.7,0,9,1.25,5.23,2.65,7.39,5,14,2.89,8.13,2.38,9.39,2,10-1.93,3.1-8.96,3.53-14,1-6.15-3.08-5.37-8.55-12-12-3.9-2.03-4.87-.49-10-2-10.13-2.98-9.36-9.85-19-14-8.88-3.82-13.94,.12-19-5-2.25-2.28-1.22-3.03-5-10-3.16-5.84-6.21-9.59-9-13-4.55-5.55-6.89-8.35-10-9-.9-.19-2.07-.3-10,2-9.43,2.73-10.6,3.7-13,3-4.38-1.28-3.35-5.32-8-8-6.99-4.02-14.25,2.28-19-2-2.6-2.34-1.06-4.81-4-7-4.34-3.24-11.41-.6-13,0-4.29,1.61-4.66,3.25-8,5-8.93,4.7-15.05-2.44-23,1-7.91,3.42-4.63,11.69-13,16-7.47,3.84-11.49-2.02-24,2-4.27,1.37-6.4,2.89-11,3-6.06,.15-10.55-2.29-12-3-11.28-5.47-30.67,1.1-54,9,0,0-16.4,5.55-39,18-12.54,6.91-14.92,10-16,13-.61,1.7-1.42,5.03-4,6-2.44,.92-4.21-1.13-7,0-1.48,.6-2.32,1.73-4,4-2.14,2.89-2.14,3.99-3,5-4.71,5.5-23.17-5.96-29,0-1.43,1.46-1.07,2.91-3,4-3.49,1.97-6.94-1.49-10,0-3.28,1.6-1.82,6.82-4,10-4.78,6.96-24.94,1.21-35-2-35.06-11.19-39.45-20.93-56-19-13.48,1.57-23.86,9.58-27,12-7.1,5.47-14.06,10.84-17,20-1.61,5.03-1.59,9.88-6,14-2.91,2.72-4.22,1.82-8,5-5.67,4.77-4.19,8.04-9,11-3.13,1.93-3.13,.16-11,3-2.86,1.03-5.44,2.2-7,1-1.12-.87-.71-2.19-2-3-1.51-.94-4.12-.41-5,1-.9,1.45,.65,2.83,0,4-1.39,2.49-9.4-2-13,1-3.47,2.89,.6,9.88-3,13-3.05,2.64-7.24-1.26-11,1-5.9,3.55-.4,16.04-6,20-5.49,3.88-15.42-4.82-21,0-2.29,1.98-1.94,4.58-5,6-2.59,1.2-6.51,1.03-8-1-2.06-2.81,2.17-6.92,0-10-1.3-1.84-3.3-1.08-7-4-1.11-.87-2.17-1.71-3-3-3.3-5.11,1.07-10.93-2-14-1.22-1.22-3.25-1.64-4-1-1.23,1.06,1.32,4.71,0,6-.93,.91-3.41,.27-5-1-2.07-1.65-1.74-3.64-3-6-1.88-3.51-6.29-5.98-10-6-6.23-.04-11.22,6.8-13,12-1.91,5.57,.5,7.43-2,12-2.94,5.37-8.88,7.58-10,8-5.66,2.11-7.81,.03-10,2-4.41,3.98,3.91,12.84,0,22-3.31,7.75-11.38,6.35-15,16-1.27,3.38-1.31,6.29-4,8-3.42,2.17-7.02-.19-9,2-2.2,2.44,1.12,6.6-1,9-2.03,2.29-8.03,1.86-10-1-2.41-3.51,2.56-8.78,0-12-1.78-2.24-4.76-.44-7-3-1.59-1.82-.68-3.41-2-9-.77-3.25-1.15-4.87-2-6-2.41-3.21-6.82-3.53-15-4-5.87-.34-8.83-.48-10,1-2.8,3.55,3.8,10.91,1,14-1.49,1.65-5.17,1.55-7,0-1.99-1.68-.67-4.12-3-8-.72-1.19-1.87-3.11-4-4-3.25-1.35-8.05,0-10,3-2.81,4.32,1.93,9.51-1,13-1.97,2.35-4.63,.61-7,3-3.61,3.64,.39,9.8-3,13-2.13,2.01-3.91-.25-9,2-3.72,1.65-4.53,3.63-8,4-1.17,.12-3.48,.37-5-1-2.3-2.08,.02-5.36-2-8-1.56-2.05-3.63-.96-10-3-3.12-1-5.73-1.87-8-4,0,0-4-7-4-7V0H2420s0,230,0,230Z"/>
</svg>