<?xml version="1.0" encoding="UTF-8"?>
<svg id="Calque_1" data-name="Calque 1" xmlns="http://www.w3.org/2000/svg" viewBox="0 0 272 2420">
  <defs>
    <style>
      .cls-1 {
        fill: #001014;
      }
    </style>
  </defs>
  <path class="cls-1" d="M17,136c1.71,2.69,4.62,2.73,8,4,9.65,3.62,8.25,11.69,16,15,9.16,3.91,18.02-4.41,22,0,1.97,2.19-.11,4.34,2,10,.42,1.12,2.63,7.06,8,10,4.57,2.5,6.43,.09,12,2,5.2,1.78,12.04,6.77,12,13-.02,3.71-2.49,8.12-6,10-2.36,1.26-4.35,.93-6,3-1.27,1.59-1.91,4.07-1,5,1.29,1.32,4.94-1.23,6,0,.64,.75,.22,2.78-1,4-3.07,3.07-8.9-1.3-14,2-1.29,.83-2.13,1.89-3,3-2.92,3.7-2.16,5.7-4,7-3.08,2.17-7.19-2.06-10,0-2.03,1.49-2.2,5.41-1,8,1.42,3.06,4.02,2.71,6,5,4.82,5.58-3.88,15.51,0,21,3.96,5.6,16.45,.1,20,6,2.26,3.76-1.64,7.95,1,11,3.12,3.6,10.11-.48,13,3,3,3.6-1.49,11.61,1,13,1.17,.65,2.55-.9,4,0,1.41,.88,1.94,3.49,1,5-.81,1.29-2.13,.88-3,2-1.2,1.56-.03,4.14,1,7,2.84,7.87,1.07,7.87,3,11,2.96,4.81,6.23,3.33,11,9,3.18,3.78,2.28,5.09,5,8,4.12,4.41,8.97,4.39,14,6,9.16,2.94,14.53,9.9,20,17,2.42,3.14,10.43,13.52,12,27,1.93,16.55-7.81,20.94-19,56-3.21,10.06-8.96,30.22-2,35,3.18,2.18,8.4,.72,10,4,1.49,3.06-1.97,6.51,0,10,1.09,1.93,2.54,1.57,4,3,5.96,5.83-5.5,24.29,0,29,1.01,.86,2.11,.86,5,3,2.27,1.68,3.4,2.52,4,4,1.13,2.79-.92,4.56,0,7,.97,2.58,4.3,3.39,6,4,3,1.08,6.09,3.46,13,16,12.45,22.6,18,39,18,39,7.9,23.33,14.47,42.72,9,54-.71,1.45-3.15,5.94-3,12,.11,4.6,1.63,6.73,3,11,4.02,12.51-1.84,16.53,2,24,4.31,8.37,12.58,5.09,16,13,3.44,7.95-3.7,14.07,1,23,1.75,3.34,3.39,3.71,5,8,.6,1.59,3.24,8.66,0,13-2.19,2.94-4.66,1.4-7,4-4.28,4.75,2.02,12.01-2,19-2.68,4.65-6.72,3.62-8,8-.7,2.4,.27,3.57,3,13,2.3,7.93,2.19,9.1,2,10-.65,3.11-3.45,5.45-9,10-3.41,2.79-7.16,5.84-13,9-6.97,3.78-7.72,2.75-10,5-5.12,5.06-1.18,10.12-5,19-4.15,9.64-11.02,8.87-14,19-1.51,5.13,.03,6.1-2,10-3.45,6.63-8.92,5.85-12,12-2.53,5.04-2.1,12.07,1,14,.61,.38,1.87,.89,10-2,6.61-2.35,8.77-3.75,14-5,3.3-.79,7.76-1.81,9,0,1.03,1.51-1.09,3.66,0,6,.44,.94,1.46,2.07,5,3,8.24,2.17,12.67-1.31,15,1,2.62,2.6-1.66,8.33,1,11,2.78,2.79,9.03-1.83,12,1,2.09,1.99-.25,4.98,1,12,.38,2.15,1.14,6.38,4,10,3.8,4.81,7.68,3.98,12,8,3.48,3.24,4.82,7.38,6,13,14.38,68.76,6,144,6,144-1.58,14.17-4.29,35.02-17,41-3.59,1.69-8.55,2.46-11,7-3.31,6.15,2.48,10.86,0,19-1.9,6.22-7.89,12-14,14-10.06,3.29-13,4-13,4-1.82,.44-3.31,.74-4,2-.99,1.79,.59,3.82,3,10,1.69,4.31,2.52,6.5,2,8-1.14,3.29-5.19,2.51-8,6-3.22,4,0,7.6-2,13-2.58,6.96-9.42,4.99-16,13-4.57,5.56-5.72,11.92-7,19-.48,2.63-.38,3.07-1,16-.79,16.36-1.03,17.4,0,20,3.5,8.86,12.85,13.45,14,14,5.86,2.78,8.52,1.48,12,5,3.02,3.05,2.03,5.05,6,11,2.96,4.43,6.12,7.24,7,8,6.75,5.83,10.02,4.19,12,8,2.25,4.33-1.64,7.08,0,16,.57,3.12,1.03,2.65,2,7,1.01,4.5,2.09,9.32,1,14-1.1,4.72-3.32,4.65-7,11-2.46,4.24-6.38,11-5,17,1.64,7.16,9.07,5.59,15,14,2.14,3.04,1.37,3.52,5,32,.87,6.78,1.25,9.42,0,13-2.19,6.26-7.23,9.21-6,13,.31,.95,1.54,1.98,4,4,5.75,4.73,6.95,4.42,8,6,3.05,4.6-4.46,11.27-6,21-1.47,9.27,3.24,16.55,6,22,4.53,8.95,3.87,13.12,8,57,2.88,30.62,2.48,61.58,7,92,0,0,1.56,10.5-3,30-.18,.77-.58,2.43-1.23,4.18,5.83,8.95,10.45,18.6,13.97,28.81,2.69,7.8,4.73,15.74,6.38,23.76,.64,.35,1.27,.72,1.88,1.13,.7,.47,1.36,.96,2,1.47V0H23l-7,4c-2.13,2.27-3,4.88-4,8-2.04,6.37-.95,8.44-3,10-2.64,2.02-5.92-.3-8,2-1.37,1.52-1.12,3.83-1,5,.37,3.47,2.35,4.28,4,8,2.25,5.09,0,6.87,2,9,3.2,3.39,9.36-.61,13,3,2.39,2.37,.65,5.03,3,7,3.49,2.93,8.68-1.81,13,1,3.01,1.95,4.35,6.75,3,10-.89,2.13-2.81,3.28-4,4-3.88,2.33-6.32,1.01-8,3-1.55,1.83-1.65,5.51,0,7,3.09,2.8,10.45-3.8,14-1,1.48,1.17,1.34,4.13,1,10-.47,8.18-.79,12.59-4,15-1.13,.85-2.75,1.23-6,2-5.59,1.32-7.18,.41-9,2-2.56,2.24-.76,5.22-3,7-3.22,2.56-8.49-2.41-12,0-2.86,1.97-3.29,7.97-1,10,2.4,2.12,6.56-1.2,9,1,2.19,1.98-.17,5.58,2,9Z"/>
</svg>